<svg xmlns="http://www.w3.org/2000/svg" xmlns:xlink="http://www.w3.org/1999/xlink" id="svg" version="1.1" width="400" height="118.27956989247312" viewBox="0 0 400 118.27956989247312"><g id="svgg"><path id="path0" d="M45.417 12.605 C 43.004 13.282,42.166 13.866,40.667 15.917 C 40.265 16.467,39.769 17.104,39.566 17.333 C 39.362 17.563,38.996 18.349,38.752 19.082 C 38.508 19.814,38.059 20.827,37.753 21.332 C 37.253 22.160,36.500 24.106,36.500 24.573 C 36.500 24.674,36.152 25.351,35.727 26.078 C 35.301 26.805,34.740 28.075,34.478 28.902 C 34.217 29.729,33.747 30.820,33.434 31.327 C 33.121 31.835,32.708 32.697,32.516 33.243 C 32.181 34.196,31.730 34.935,30.375 36.750 C 29.474 37.956,29.245 38.153,27.583 39.152 C 26.758 39.648,25.971 40.143,25.833 40.252 C 25.499 40.516,24.417 40.768,22.500 41.027 C 20.520 41.296,20.035 41.671,19.408 43.417 C 19.177 44.058,18.844 44.861,18.667 45.201 C 18.239 46.024,18.455 46.646,19.386 47.273 C 23.073 49.759,24.117 52.380,22.729 55.667 C 22.400 56.446,21.959 57.646,21.749 58.333 C 21.227 60.041,21.083 60.385,20.411 61.533 C 20.090 62.080,19.679 63.081,19.498 63.757 C 19.174 64.968,18.748 65.883,18.160 66.629 C 17.996 66.838,17.733 67.438,17.576 67.963 C 16.963 70.007,16.798 70.424,16.248 71.321 C 15.934 71.832,15.457 72.925,15.188 73.750 C 14.918 74.575,14.397 75.775,14.030 76.417 C 13.662 77.058,13.164 78.287,12.922 79.146 C 12.548 80.474,12.384 80.800,11.834 81.313 L 11.185 81.917 10.991 83.833 C 10.657 87.112,10.999 89.713,11.788 89.911 C 12.037 89.974,12.617 90.420,13.078 90.902 C 14.222 92.099,14.488 92.216,17.125 92.679 C 17.606 92.764,18.394 92.904,18.875 92.991 C 30.184 95.032,31.402 94.892,32.254 91.450 C 32.471 90.576,32.890 89.386,33.185 88.806 C 34.133 86.942,33.843 86.212,31.932 85.652 C 30.695 85.290,30.268 85.148,28.083 84.370 C 26.088 83.660,26.041 83.620,25.305 82.042 C 24.492 80.298,24.379 78.670,24.976 77.295 C 25.164 76.862,25.434 75.945,25.576 75.258 C 25.925 73.571,26.264 72.607,26.928 71.413 C 27.235 70.861,27.671 69.717,27.898 68.871 C 28.124 68.024,28.438 67.088,28.594 66.791 C 28.750 66.493,29.056 65.906,29.273 65.487 C 29.491 65.067,29.823 64.129,30.011 63.403 C 30.338 62.143,30.758 61.132,31.501 59.817 C 31.687 59.487,32.027 58.475,32.256 57.567 C 32.485 56.659,32.788 55.673,32.928 55.374 C 33.698 53.738,33.896 51.681,33.385 50.651 C 32.660 49.190,31.736 48.118,30.562 47.376 C 29.449 46.672,29.359 45.553,30.289 43.979 C 30.652 43.365,31.079 43.202,33.057 42.924 C 35.143 42.631,35.182 42.617,36.417 41.718 C 38.179 40.434,38.412 40.228,38.664 39.734 C 38.799 39.468,39.260 38.743,39.688 38.124 C 40.246 37.315,40.546 36.658,40.752 35.791 C 40.911 35.127,41.395 33.871,41.829 33.000 C 42.262 32.129,42.775 30.811,42.967 30.071 C 43.159 29.331,43.622 28.157,43.996 27.464 C 44.370 26.770,44.867 25.538,45.101 24.726 C 45.498 23.346,46.057 22.148,46.543 21.637 C 46.658 21.516,46.933 21.059,47.153 20.623 C 47.606 19.727,47.737 19.597,48.815 18.969 C 51.301 17.522,50.968 17.612,54.205 17.510 C 57.692 17.400,57.792 17.351,58.261 15.513 C 58.755 13.577,58.078 12.991,55.083 12.760 C 54.350 12.704,53.225 12.582,52.583 12.490 C 49.896 12.104,47.040 12.149,45.417 12.605 M114.617 20.337 C 113.942 20.868,113.695 22.253,114.065 23.428 C 114.495 24.792,115.013 25.080,118.083 25.663 C 119.622 25.955,119.863 26.096,121.012 27.371 C 122.663 29.203,122.538 28.354,122.686 38.750 C 122.838 49.392,122.844 49.448,124.059 51.040 C 124.386 51.468,124.840 52.115,125.069 52.477 C 125.336 52.900,125.736 53.246,126.188 53.443 C 127.819 54.156,128.270 54.459,128.868 55.250 C 130.232 57.052,129.622 58.236,126.604 59.649 C 124.768 60.509,124.011 61.195,123.292 62.654 L 122.917 63.417 122.803 75.833 C 122.671 90.239,122.705 89.893,121.213 91.644 C 119.597 93.540,117.645 94.333,114.598 94.333 C 111.343 94.333,110.931 94.746,110.764 98.167 C 110.544 102.696,110.705 102.855,115.917 103.262 C 117.658 103.398,119.828 103.619,120.738 103.754 C 126.244 104.572,129.746 103.371,131.198 100.167 C 131.468 99.571,131.826 98.781,131.995 98.411 C 133.050 96.095,133.203 92.716,132.663 83.667 C 131.799 69.191,131.805 68.711,132.904 65.439 C 133.694 63.087,133.996 62.789,136.667 61.740 C 139.223 60.735,139.747 60.060,139.634 57.914 C 139.519 55.718,138.748 54.735,136.424 53.823 C 135.510 53.464,133.000 51.392,133.000 50.996 C 133.000 50.925,132.711 50.391,132.359 49.809 C 131.317 48.090,131.090 46.174,130.914 37.667 C 130.764 30.391,130.425 27.262,129.678 26.250 C 129.610 26.158,129.384 25.652,129.175 25.125 C 128.889 24.405,128.566 23.971,127.872 23.375 C 127.365 22.940,126.866 22.501,126.763 22.401 C 126.263 21.914,125.105 21.632,118.982 20.508 C 115.711 19.908,115.188 19.887,114.617 20.337 M183.816 38.048 C 182.840 38.705,182.776 39.111,182.675 45.305 C 182.561 52.252,182.563 52.247,179.561 50.672 C 177.716 49.704,175.912 49.440,173.683 49.812 C 171.491 50.177,167.667 53.256,167.667 54.655 C 167.667 54.747,167.376 55.418,167.021 56.145 C 166.154 57.918,166.017 58.599,165.856 61.917 C 165.569 67.875,165.908 71.186,167.064 73.703 C 167.370 74.370,167.725 75.217,167.851 75.583 C 168.064 76.199,169.961 78.262,170.924 78.925 C 173.022 80.370,179.181 80.011,180.740 78.354 C 181.400 77.651,181.903 77.679,182.651 78.458 C 184.050 79.918,186.293 79.883,186.916 78.392 C 187.242 77.613,187.299 40.858,186.977 39.532 C 186.571 37.865,185.109 37.178,183.816 38.048 M274.372 43.425 C 273.764 43.851,273.662 44.230,273.517 46.589 C 273.349 49.346,272.769 50.167,270.992 50.167 C 269.975 50.167,269.036 51.539,269.373 52.532 C 269.593 53.177,269.844 53.330,271.116 53.593 C 273.625 54.113,273.477 53.422,273.544 64.917 C 273.605 75.435,273.527 74.751,274.965 77.318 C 275.872 78.937,276.214 79.235,277.583 79.597 C 281.729 80.693,284.257 78.056,280.927 76.108 C 278.093 74.450,278.259 75.163,278.202 64.465 L 278.153 55.513 278.593 54.848 C 278.965 54.287,279.208 54.127,280.142 53.829 C 283.308 52.820,283.289 51.307,280.092 49.837 C 278.359 49.041,278.241 48.840,278.122 46.500 C 277.979 43.697,277.615 43.167,275.839 43.167 C 275.116 43.167,274.615 43.255,274.372 43.425 M337.998 43.380 C 337.330 43.917,337.167 44.458,337.167 46.125 C 337.167 48.493,336.855 49.062,335.167 49.785 C 331.951 51.160,331.764 52.815,334.720 53.736 C 337.172 54.500,337.163 54.457,337.166 65.750 C 337.168 76.451,337.518 78.180,339.900 79.238 C 342.318 80.311,345.787 79.945,345.863 78.607 C 345.965 76.828,345.379 75.961,343.928 75.743 C 341.657 75.402,341.693 75.582,341.687 64.500 C 341.682 53.384,341.610 53.712,344.050 53.676 C 345.367 53.657,345.833 53.175,345.833 51.835 C 345.833 50.768,345.296 50.292,343.767 50.003 C 341.951 49.661,341.753 49.342,341.593 46.505 C 341.467 44.280,341.267 43.675,340.548 43.348 C 340.015 43.105,338.313 43.127,337.998 43.380 M203.083 49.770 C 202.154 49.913,198.168 51.974,198.166 52.312 C 198.166 52.370,197.726 52.925,197.188 53.546 C 196.414 54.441,196.133 54.926,195.838 55.879 C 195.633 56.542,195.279 57.646,195.051 58.333 C 194.148 61.062,193.807 67.035,194.394 69.833 C 195.332 74.303,196.948 77.051,199.620 78.715 C 202.325 80.401,210.558 80.166,212.559 78.347 C 213.320 77.655,213.764 77.282,214.212 76.961 C 214.807 76.534,214.766 75.629,214.122 74.947 C 213.343 74.120,212.297 74.080,211.110 74.833 C 210.677 75.108,210.272 75.333,210.210 75.333 C 210.149 75.333,209.350 75.567,208.435 75.854 C 204.940 76.947,201.049 75.602,200.034 72.951 C 197.632 66.678,197.881 66.450,207.250 66.333 C 214.527 66.242,214.596 66.233,215.140 65.216 C 215.539 64.471,215.247 58.099,214.726 56.167 C 214.430 55.066,212.289 52.035,211.543 51.660 C 211.290 51.533,210.896 51.303,210.667 51.150 C 208.803 49.901,205.797 49.354,203.083 49.770 M253.083 49.814 C 251.712 50.080,248.659 51.906,247.950 52.885 C 247.557 53.429,246.686 55.401,246.326 56.566 C 245.554 59.058,247.637 63.166,250.306 64.417 C 250.825 64.660,251.709 65.156,252.270 65.519 C 252.831 65.881,253.789 66.320,254.398 66.495 C 255.610 66.841,256.124 67.114,258.222 68.529 C 260.318 69.942,260.964 71.662,260.215 73.833 C 259.571 75.700,256.322 76.714,253.722 75.860 C 251.837 75.241,251.780 75.190,249.755 72.362 C 247.959 69.853,244.623 71.277,245.721 74.083 C 246.047 74.917,247.541 76.916,248.250 77.467 C 248.617 77.752,249.124 78.180,249.378 78.419 C 250.955 79.901,256.094 80.320,260.167 79.299 C 260.905 79.114,262.333 78.273,262.333 78.023 C 262.333 77.953,262.668 77.644,263.077 77.338 C 265.635 75.422,265.676 68.593,263.142 66.712 C 262.743 66.416,262.063 65.879,261.630 65.519 C 261.179 65.143,260.389 64.713,259.780 64.510 C 259.196 64.316,258.462 63.966,258.150 63.734 C 257.539 63.279,255.952 62.502,255.620 62.496 C 254.746 62.480,251.866 60.438,251.393 59.500 C 250.342 57.412,251.550 54.301,253.596 53.826 C 256.461 53.162,258.551 54.097,260.212 56.784 C 261.290 58.528,264.008 58.586,264.499 56.876 C 264.926 55.392,263.120 52.382,261.229 51.423 C 260.874 51.243,260.283 50.902,259.917 50.666 C 259.550 50.429,259.025 50.138,258.750 50.018 C 258.168 49.765,254.096 49.618,253.083 49.814 M296.833 49.806 C 296.421 49.871,295.708 50.140,295.250 50.405 C 294.792 50.670,294.004 51.105,293.500 51.372 C 291.052 52.669,289.079 56.086,290.034 57.374 C 291.007 58.684,293.628 57.807,294.689 55.817 C 295.638 54.035,297.565 53.264,300.068 53.664 C 302.658 54.078,303.536 55.271,303.566 58.417 C 303.597 61.732,303.177 62.166,299.933 62.168 C 296.644 62.170,294.169 62.785,292.985 63.893 C 292.748 64.115,292.319 64.418,292.032 64.567 C 291.430 64.878,290.796 65.522,290.476 66.148 C 290.353 66.387,290.022 66.958,289.739 67.417 C 288.352 69.663,288.070 73.209,289.136 74.999 C 289.290 75.258,289.662 75.890,289.961 76.405 C 292.028 79.951,297.529 81.085,301.318 78.746 C 302.531 77.997,303.027 78.011,304.761 78.839 C 307.698 80.240,309.477 79.405,308.928 76.883 C 308.437 74.632,308.334 72.626,308.334 65.333 C 308.333 57.649,308.315 57.388,307.579 54.583 C 307.137 52.897,305.773 51.579,303.012 50.172 C 302.215 49.766,298.492 49.546,296.833 49.806 M360.333 49.771 C 359.214 49.914,355.499 51.880,355.163 52.507 C 355.077 52.667,354.672 53.190,354.263 53.670 C 353.363 54.724,353.051 55.354,352.660 56.903 C 352.497 57.552,352.241 58.458,352.092 58.917 C 351.030 62.192,351.059 68.467,352.152 71.869 C 352.338 72.445,352.643 73.424,352.831 74.044 C 353.201 75.265,353.404 75.563,354.917 77.099 C 355.982 78.181,357.151 79.037,357.833 79.235 C 359.957 79.850,363.805 80.012,366.333 79.593 C 369.738 79.028,372.328 76.883,371.557 75.265 C 371.005 74.107,369.993 74.014,368.063 74.942 C 367.385 75.269,366.587 75.600,366.290 75.678 C 365.993 75.756,365.337 75.940,364.833 76.088 C 362.853 76.666,359.306 75.712,358.028 74.256 C 356.779 72.834,355.746 68.850,356.318 67.662 C 356.931 66.392,356.723 66.427,364.304 66.333 C 371.577 66.244,371.512 66.252,372.155 65.350 C 373.106 64.014,372.212 56.069,370.917 54.349 C 370.601 53.928,370.190 53.306,370.005 52.967 C 369.646 52.310,369.516 52.200,367.833 51.134 C 365.793 49.843,363.313 49.392,360.333 49.771 M388.167 49.815 C 387.846 49.871,387.246 50.116,386.833 50.360 C 385.078 51.397,383.963 51.503,382.833 50.742 C 381.567 49.888,380.116 50.140,379.422 51.333 C 378.938 52.167,378.787 77.546,379.261 78.446 C 379.950 79.756,382.411 79.802,383.208 78.520 C 383.583 77.917,383.583 77.914,383.667 68.333 L 383.750 58.750 384.218 57.833 C 385.054 56.193,385.129 56.090,385.886 55.552 C 387.312 54.539,388.167 54.201,389.614 54.081 C 391.211 53.948,391.333 53.792,391.333 51.886 C 391.333 49.727,390.775 49.362,388.167 49.815 M323.570 50.659 C 321.913 51.556,321.247 51.600,320.442 50.868 C 318.837 49.408,316.873 50.049,316.526 52.145 C 316.249 53.826,316.255 77.283,316.533 78.212 C 316.882 79.375,318.338 79.851,319.748 79.261 C 320.841 78.805,320.833 78.885,320.833 68.535 L 320.833 59.277 321.358 58.138 C 321.647 57.512,321.947 57.000,322.025 57.000 C 322.103 57.000,322.167 56.896,322.167 56.770 C 322.167 56.028,324.851 54.322,326.534 53.993 C 328.221 53.664,328.576 53.305,328.580 51.922 C 328.587 49.594,326.509 49.070,323.570 50.659 M221.432 50.122 C 219.757 50.371,219.525 51.695,220.665 54.500 C 221.179 55.764,221.297 56.179,221.666 58.023 C 221.981 59.596,222.355 60.751,222.764 61.417 C 223.100 61.961,223.497 63.292,223.832 64.995 C 224.163 66.673,224.258 66.979,224.885 68.385 C 225.385 69.507,225.585 70.205,226.013 72.333 C 226.207 73.296,226.422 74.158,226.490 74.250 C 226.713 74.548,227.833 77.359,227.833 77.619 C 227.833 78.544,228.952 79.500,230.033 79.500 C 231.386 79.500,231.955 78.848,232.409 76.777 C 232.567 76.058,232.978 74.858,233.323 74.110 C 233.746 73.193,234.075 72.098,234.332 70.750 C 234.728 68.670,234.761 68.561,235.510 66.909 C 235.953 65.933,236.259 64.828,236.661 62.750 C 236.767 62.200,237.185 60.919,237.590 59.903 C 238.011 58.847,238.476 57.276,238.675 56.236 C 238.868 55.236,239.166 54.096,239.338 53.705 C 240.378 51.340,239.489 49.718,237.483 50.319 C 235.962 50.774,234.995 52.417,234.582 55.250 C 234.276 57.350,234.087 58.098,233.281 60.417 C 232.962 61.333,232.576 62.871,232.422 63.833 C 231.864 67.332,231.497 68.155,230.193 68.820 L 229.548 69.149 229.044 68.616 C 228.486 68.026,228.287 67.480,228.004 65.750 C 227.669 63.703,227.480 62.948,226.964 61.583 C 226.350 59.958,226.095 59.069,225.852 57.708 C 225.383 55.077,225.246 54.514,224.828 53.500 C 224.378 52.409,223.784 51.271,223.452 50.863 C 223.283 50.655,222.069 49.971,221.965 50.025 C 221.938 50.039,221.698 50.082,221.432 50.122 M207.381 53.846 C 207.728 53.940,208.188 54.219,208.404 54.466 C 210.585 56.970,210.680 57.163,210.795 59.286 C 210.957 62.282,210.862 62.333,205.175 62.333 C 198.910 62.333,198.593 62.073,199.694 57.833 C 200.586 54.399,203.609 52.831,207.381 53.846 M363.820 53.686 C 366.441 54.129,368.728 58.290,367.836 60.993 C 367.411 62.279,367.538 62.250,362.341 62.250 C 356.297 62.250,356.217 62.205,356.623 58.993 C 357.134 54.944,359.769 53.000,363.820 53.686 M179.373 54.054 C 180.070 54.346,182.145 56.465,182.456 57.203 C 182.713 57.815,182.763 71.726,182.510 72.391 C 181.288 75.603,177.265 76.883,173.578 75.232 C 172.582 74.786,172.297 74.498,171.867 73.500 C 171.690 73.087,171.393 72.412,171.209 72.000 C 170.322 70.020,170.170 68.979,170.168 64.906 C 170.166 60.773,170.341 59.787,171.542 57.167 C 172.323 55.462,173.780 54.101,175.132 53.814 C 176.055 53.618,178.686 53.767,179.373 54.054 M302.285 65.202 C 304.204 65.896,304.397 71.981,302.568 74.154 C 301.113 75.884,295.927 76.351,294.623 74.869 C 293.424 73.507,292.860 70.816,293.516 69.583 C 294.962 66.867,294.830 67.013,296.500 66.281 C 299.111 65.137,301.087 64.769,302.285 65.202 " stroke="none" fill="#45578c" fill-rule="evenodd"/><path id="path2" d="M47.000 10.662 C 45.823 10.774,45.115 11.028,43.417 11.948 C 43.142 12.097,42.565 12.392,42.136 12.604 C 41.707 12.817,41.144 13.261,40.886 13.592 C 40.628 13.922,40.166 14.468,39.859 14.805 C 38.924 15.830,38.589 16.361,38.003 17.750 C 37.693 18.483,37.243 19.383,37.002 19.750 C 36.761 20.117,36.465 20.754,36.345 21.167 C 35.942 22.550,35.369 23.909,34.775 24.891 C 34.451 25.426,34.140 26.101,34.083 26.391 C 34.025 26.680,33.819 27.329,33.624 27.833 C 33.285 28.711,33.126 29.030,32.376 30.333 C 32.192 30.654,31.952 31.292,31.843 31.750 C 31.632 32.638,30.924 33.997,30.560 34.215 C 30.439 34.287,30.137 34.700,29.889 35.131 C 29.228 36.283,27.605 37.784,26.344 38.409 C 25.742 38.707,24.948 39.105,24.579 39.294 C 24.210 39.483,23.423 39.727,22.829 39.836 C 20.312 40.298,19.457 40.675,19.000 41.525 C 18.771 41.952,18.227 42.945,17.792 43.732 C 16.372 46.299,16.546 46.912,19.274 48.937 C 21.740 50.767,22.084 51.748,21.406 55.019 C 20.903 57.449,20.331 59.061,19.640 60.000 C 19.471 60.229,19.192 60.904,19.020 61.500 C 18.638 62.821,17.959 64.371,17.514 64.937 C 17.332 65.168,17.064 65.783,16.918 66.303 C 16.525 67.700,16.001 68.958,15.385 69.981 C 15.084 70.481,14.788 71.155,14.727 71.479 C 14.601 72.154,13.631 74.347,13.177 74.986 C 13.009 75.223,12.779 75.754,12.667 76.167 C 12.351 77.330,11.927 78.316,11.367 79.191 C 10.156 81.084,10.130 89.948,11.333 91.121 C 12.585 92.343,12.964 92.656,13.422 92.841 C 13.694 92.951,14.067 93.103,14.250 93.177 C 17.278 94.411,20.259 94.988,23.667 94.997 C 24.537 95.000,25.700 95.077,26.250 95.168 C 27.847 95.432,30.817 95.395,31.517 95.101 C 32.275 94.784,32.480 94.457,33.155 92.500 C 33.455 91.629,33.824 90.729,33.975 90.500 C 35.850 87.649,34.956 84.413,32.167 83.951 C 27.734 83.217,27.447 83.131,26.787 82.347 C 25.570 80.900,26.076 75.420,27.640 73.112 C 27.899 72.730,28.207 72.042,28.324 71.583 C 28.696 70.132,29.190 68.791,29.855 67.425 C 30.210 66.696,30.500 65.966,30.500 65.803 C 30.500 65.380,31.179 63.634,31.979 62.002 C 32.357 61.231,32.667 60.438,32.667 60.241 C 32.667 59.621,32.920 58.926,33.977 56.646 C 34.766 54.945,35.081 52.902,34.826 51.142 C 34.742 50.560,34.672 50.037,34.670 49.981 C 34.667 49.883,34.235 49.316,33.112 47.934 C 32.822 47.578,32.321 47.119,32.000 46.916 C 31.075 46.333,30.869 45.804,31.270 45.041 C 31.626 44.363,31.404 44.444,35.222 43.583 C 37.693 43.025,40.446 40.292,41.400 37.451 C 42.016 35.617,42.355 34.810,42.796 34.135 C 43.017 33.797,43.268 33.197,43.353 32.802 C 43.550 31.894,44.466 29.549,44.839 29.000 C 45.121 28.583,45.177 28.430,45.836 26.250 C 46.030 25.608,46.367 24.746,46.585 24.333 C 46.802 23.921,47.276 22.983,47.639 22.250 C 48.562 20.380,48.954 20.070,51.317 19.341 C 52.592 18.948,53.509 18.875,55.681 18.994 C 57.294 19.082,57.750 18.886,58.563 17.755 C 61.236 14.033,60.477 12.290,55.833 11.491 C 54.871 11.325,53.596 11.082,53.000 10.950 C 51.644 10.650,48.646 10.507,47.000 10.662 M51.500 12.275 C 51.729 12.323,53.088 12.498,54.520 12.663 C 58.427 13.115,58.968 13.527,58.305 15.549 C 57.656 17.530,57.659 17.529,54.083 17.567 C 52.235 17.587,51.289 17.664,51.000 17.817 C 48.872 18.949,47.686 19.773,47.399 20.320 C 47.227 20.648,46.743 21.449,46.324 22.100 C 45.824 22.875,45.427 23.767,45.174 24.683 C 44.962 25.453,44.499 26.622,44.146 27.281 C 43.499 28.487,43.220 29.221,42.827 30.750 C 42.710 31.208,42.287 32.221,41.888 33.000 C 41.489 33.779,41.026 34.942,40.860 35.583 C 40.498 36.982,40.138 37.771,39.598 38.354 C 39.376 38.593,39.009 39.156,38.781 39.605 C 38.496 40.168,38.116 40.585,37.559 40.948 C 37.114 41.238,36.579 41.636,36.369 41.833 C 35.755 42.410,34.692 42.778,33.000 42.998 C 30.946 43.266,30.572 43.469,30.055 44.599 C 29.439 45.944,29.602 46.694,30.651 47.339 C 31.565 47.902,32.000 48.366,32.949 49.793 C 34.116 51.547,34.098 52.521,32.832 55.917 C 32.627 56.467,32.325 57.462,32.160 58.128 C 31.995 58.794,31.553 59.898,31.178 60.582 C 30.803 61.266,30.314 62.503,30.093 63.330 C 29.871 64.158,29.584 65.041,29.455 65.292 C 28.432 67.278,28.180 67.863,28.003 68.667 C 27.694 70.071,27.470 70.657,26.800 71.816 C 26.436 72.446,26.069 73.402,25.904 74.150 C 25.750 74.847,25.400 76.147,25.126 77.040 C 24.514 79.035,24.538 80.247,25.219 81.713 C 25.465 82.243,25.667 82.743,25.667 82.823 C 25.667 83.360,28.588 84.629,32.024 85.585 C 33.848 86.092,34.204 86.945,33.321 88.685 C 33.024 89.271,32.574 90.525,32.321 91.472 C 31.830 93.309,31.563 93.747,30.714 94.106 C 29.439 94.646,24.457 94.182,18.083 92.930 C 14.445 92.215,14.072 92.069,13.073 90.971 C 12.712 90.574,12.148 90.126,11.819 89.974 C 10.443 89.339,10.447 82.526,11.823 81.176 C 12.386 80.624,12.864 79.487,13.228 77.833 C 13.278 77.604,13.633 76.897,14.016 76.262 C 14.400 75.627,14.929 74.448,15.193 73.642 C 15.456 72.835,15.925 71.742,16.235 71.213 C 16.545 70.683,17.004 69.576,17.255 68.752 C 17.703 67.279,17.826 67.015,18.614 65.819 C 19.006 65.223,19.143 64.858,19.587 63.224 C 19.716 62.751,20.014 62.038,20.251 61.640 C 20.919 60.514,21.418 59.349,21.739 58.167 C 21.901 57.571,22.252 56.606,22.520 56.023 C 24.117 52.544,23.203 49.954,19.500 47.459 C 18.312 46.658,17.981 45.858,18.557 45.180 C 18.752 44.949,18.963 44.448,19.708 42.448 C 20.006 41.647,20.766 41.230,22.333 41.007 C 24.759 40.661,25.194 40.510,27.203 39.310 C 29.152 38.146,29.399 37.930,30.500 36.419 C 30.821 35.979,31.321 35.293,31.611 34.895 C 31.901 34.497,32.266 33.786,32.423 33.315 C 32.579 32.845,33.009 31.936,33.378 31.296 C 33.747 30.655,34.225 29.526,34.441 28.785 C 34.656 28.044,35.123 26.946,35.480 26.344 C 35.836 25.742,36.366 24.552,36.658 23.699 C 36.949 22.846,37.448 21.704,37.766 21.161 C 38.084 20.619,38.488 19.725,38.664 19.176 C 38.988 18.162,39.293 17.485,39.494 17.333 C 39.555 17.287,40.020 16.688,40.528 16.000 C 41.967 14.053,42.911 13.286,44.417 12.839 C 45.974 12.377,46.303 12.302,47.333 12.178 C 48.397 12.049,50.679 12.103,51.500 12.275 M114.917 18.940 C 114.733 18.980,114.427 19.046,114.235 19.086 C 113.065 19.333,112.445 20.614,112.525 22.617 C 112.623 25.070,113.748 26.333,115.836 26.333 C 116.543 26.333,118.329 26.810,119.037 27.187 C 119.495 27.431,121.067 29.523,121.302 30.201 C 121.678 31.285,121.828 34.406,121.831 41.210 C 121.833 47.548,122.017 50.497,122.457 51.240 C 122.788 51.798,124.926 54.167,125.099 54.167 C 125.213 54.167,125.331 54.227,125.361 54.300 C 125.392 54.374,125.867 54.706,126.417 55.037 C 128.474 56.278,128.724 57.405,127.035 57.826 C 126.038 58.074,125.505 58.389,123.953 59.648 C 121.858 61.347,121.847 61.429,121.839 75.385 C 121.832 87.931,121.795 88.372,120.573 90.250 C 119.308 92.196,117.958 92.742,114.502 92.707 C 110.128 92.662,109.453 93.387,109.359 98.225 C 109.257 103.395,109.611 103.869,113.917 104.339 C 115.933 104.559,117.457 104.791,118.757 105.076 C 121.572 105.692,126.353 105.645,127.468 104.990 C 127.771 104.812,128.095 104.667,128.188 104.667 C 128.281 104.667,128.670 104.458,129.053 104.203 C 129.436 103.948,129.962 103.633,130.220 103.502 C 130.832 103.193,131.459 102.559,131.600 102.108 C 131.662 101.911,131.912 101.450,132.156 101.083 C 134.051 98.232,134.117 97.446,133.791 81.417 C 133.529 68.504,133.591 66.407,134.274 65.152 C 134.996 63.826,136.172 63.024,137.917 62.667 C 140.079 62.225,140.698 61.263,140.707 58.333 C 140.716 55.391,139.978 53.802,138.394 53.354 C 137.428 53.081,136.326 52.477,135.759 51.910 C 135.533 51.685,135.282 51.500,135.201 51.500 C 134.856 51.500,133.928 50.216,133.581 49.260 C 133.375 48.691,133.097 48.007,132.964 47.738 C 132.355 46.508,131.999 43.562,132.002 39.754 C 132.006 31.931,131.609 26.590,130.941 25.500 C 130.745 25.179,130.471 24.716,130.334 24.472 C 129.052 22.193,127.693 21.171,124.833 20.340 C 124.146 20.140,123.208 19.841,122.750 19.676 C 121.536 19.238,115.953 18.714,114.917 18.940 M82.083 19.645 C 80.383 20.699,79.630 21.709,79.328 23.340 C 79.025 24.977,78.750 26.067,78.110 28.167 C 77.789 29.221,77.441 30.758,77.337 31.583 C 77.015 34.125,76.827 34.997,76.096 37.330 C 75.707 38.569,75.297 40.258,75.183 41.083 C 74.765 44.120,74.658 44.626,74.023 46.597 C 73.666 47.702,73.285 49.164,73.175 49.845 C 72.479 54.165,72.315 54.902,71.504 57.333 C 71.174 58.324,70.954 59.519,70.647 62.000 C 70.539 62.871,70.171 64.446,69.829 65.500 C 69.094 67.762,68.930 68.476,68.583 70.917 C 68.274 73.088,68.127 73.709,67.395 75.924 C 67.064 76.926,66.706 78.555,66.503 79.982 C 66.160 82.383,65.875 83.631,65.106 86.083 C 64.877 86.817,64.568 88.242,64.421 89.250 C 64.041 91.856,63.892 92.538,63.291 94.417 C 62.513 96.852,62.498 99.537,63.256 100.764 C 63.534 101.215,63.891 101.858,64.049 102.195 C 64.325 102.782,65.200 103.667,65.505 103.667 C 65.586 103.667,66.046 103.899,66.527 104.183 C 68.281 105.217,72.084 104.247,73.316 102.451 C 73.555 102.103,74.002 101.505,74.310 101.121 C 75.106 100.131,75.659 98.321,75.670 96.667 C 75.673 96.346,75.867 95.146,76.102 94.000 C 76.540 91.864,76.628 91.478,77.073 89.750 C 77.214 89.200,77.445 87.513,77.585 86.000 C 77.844 83.219,78.074 81.564,78.351 80.500 C 79.267 76.982,79.603 74.997,80.013 70.667 C 80.112 69.612,80.369 68.037,80.582 67.167 C 80.796 66.296,81.119 64.983,81.302 64.250 C 81.614 62.995,81.733 62.148,82.169 58.083 C 82.391 56.012,82.554 55.111,83.163 52.583 C 83.713 50.298,83.908 49.071,84.168 46.250 C 84.392 43.815,84.564 42.816,85.189 40.322 C 85.857 37.653,86.101 36.152,86.335 33.250 C 86.478 31.484,86.726 29.967,87.180 28.083 C 88.466 22.740,88.415 22.084,86.569 20.227 C 85.589 19.242,83.228 18.935,82.083 19.645 M117.750 20.177 C 118.841 20.395,119.719 20.567,122.833 21.171 C 126.505 21.884,128.205 22.844,129.031 24.667 C 129.946 26.688,130.132 27.127,130.300 27.667 C 130.617 28.681,130.811 31.277,130.913 35.833 C 131.139 45.946,131.368 48.153,132.351 49.673 C 132.708 50.226,133.000 50.750,133.000 50.839 C 133.000 51.424,135.407 53.352,136.876 53.943 C 138.898 54.757,139.657 55.898,139.663 58.136 C 139.669 60.269,139.210 60.870,136.957 61.682 C 133.895 62.786,133.214 63.679,132.393 67.667 C 131.963 69.754,131.992 71.243,132.673 82.167 C 133.268 91.698,133.037 96.778,131.915 98.821 C 131.786 99.057,131.457 99.742,131.185 100.343 C 129.937 103.099,126.562 104.503,122.333 104.026 C 121.554 103.938,119.904 103.752,118.667 103.612 C 117.429 103.473,115.494 103.277,114.366 103.178 C 110.877 102.873,110.748 102.726,110.756 99.091 C 110.767 94.628,111.037 94.286,114.602 94.230 C 117.745 94.180,119.302 93.576,120.955 91.768 C 122.666 89.895,122.650 90.037,122.659 76.917 C 122.670 62.019,122.799 61.345,125.921 59.854 C 128.188 58.772,128.575 58.541,129.020 58.004 C 130.135 56.657,129.196 54.915,126.734 53.765 C 125.902 53.376,125.411 53.020,125.077 52.564 C 124.817 52.208,124.328 51.542,123.993 51.083 C 122.803 49.459,122.808 49.497,122.673 39.167 C 122.539 28.947,122.573 29.250,121.430 28.000 C 121.053 27.587,120.595 27.056,120.411 26.818 C 119.843 26.083,119.179 25.830,116.949 25.500 C 114.734 25.172,113.833 24.283,113.833 22.425 C 113.833 20.123,114.775 19.582,117.750 20.177 M84.857 20.569 C 85.468 20.824,86.313 21.781,86.638 22.586 C 86.807 23.002,86.785 23.376,86.514 24.753 C 86.333 25.668,86.106 27.185,86.009 28.125 C 85.913 29.065,85.752 30.602,85.653 31.542 C 85.555 32.481,85.252 34.112,84.982 35.167 C 84.106 38.581,83.859 40.080,83.497 44.167 C 83.396 45.313,83.246 46.512,83.165 46.833 C 81.919 51.735,81.897 51.852,81.509 55.667 C 81.337 57.362,81.035 59.425,80.840 60.250 C 80.644 61.075,80.342 62.350,80.169 63.083 C 79.737 64.913,79.541 66.225,79.336 68.667 C 79.147 70.909,79.051 71.473,78.309 74.667 C 78.042 75.813,77.787 76.922,77.741 77.132 C 77.581 77.860,77.324 80.092,77.165 82.138 C 77.078 83.268,76.931 84.468,76.841 84.804 C 75.742 88.880,75.368 90.987,74.851 96.000 C 74.314 101.211,70.910 104.237,66.899 103.071 C 64.576 102.396,63.444 98.961,64.376 95.417 C 64.520 94.867,64.729 93.592,64.840 92.583 C 65.016 90.976,65.306 89.809,66.253 86.909 C 66.454 86.293,66.661 85.144,67.151 81.917 C 67.248 81.275,67.639 79.737,68.020 78.500 C 68.757 76.100,68.903 75.416,69.167 73.132 C 69.260 72.334,69.608 70.796,69.941 69.715 C 70.766 67.041,71.089 65.578,71.332 63.417 C 71.477 62.127,71.751 60.941,72.257 59.417 C 73.000 57.172,73.195 56.291,73.508 53.750 C 73.681 52.352,73.979 51.170,74.829 48.511 C 75.018 47.922,75.285 46.609,75.422 45.595 C 75.770 43.033,75.957 42.166,76.579 40.250 C 77.333 37.925,77.406 37.556,77.925 33.460 C 77.968 33.117,78.328 31.842,78.724 30.626 C 79.120 29.411,79.529 27.854,79.632 27.167 C 79.736 26.479,79.906 25.322,80.010 24.596 C 80.401 21.882,82.943 19.769,84.857 20.569 M68.750 24.770 C 66.356 25.363,65.000 26.465,64.449 28.264 C 63.717 30.654,63.448 31.437,63.090 32.221 C 62.674 33.132,62.350 34.329,61.999 36.250 C 61.882 36.892,61.602 37.829,61.376 38.333 C 60.607 40.053,60.170 41.405,59.896 42.911 C 59.745 43.739,59.399 44.942,59.126 45.583 C 58.853 46.225,58.568 46.900,58.493 47.083 C 58.254 47.667,58.034 48.549,57.828 49.750 C 57.628 50.919,57.265 52.025,56.571 53.583 C 56.132 54.570,55.937 55.276,55.591 57.125 C 55.450 57.881,55.009 59.269,54.611 60.208 C 54.212 61.148,53.794 62.404,53.681 63.000 C 53.248 65.275,53.099 65.794,52.456 67.250 C 52.067 68.131,51.638 69.510,51.415 70.593 C 51.207 71.606,50.683 73.331,50.250 74.425 C 49.817 75.520,49.404 76.828,49.331 77.333 C 49.147 78.609,49.037 79.037,48.451 80.750 C 47.405 83.806,48.201 87.147,50.227 88.206 C 51.215 88.723,54.380 88.735,55.504 88.226 C 58.071 87.065,59.938 83.796,60.677 79.167 C 60.787 78.479,61.207 76.918,61.610 75.697 C 62.086 74.257,62.437 72.794,62.609 71.531 C 62.796 70.163,63.120 68.864,63.697 67.167 C 64.288 65.432,64.607 64.138,64.830 62.583 C 65.053 61.027,65.350 59.826,65.884 58.321 C 66.400 56.866,66.713 55.618,66.909 54.238 C 67.097 52.907,67.460 51.437,68.005 49.789 C 68.493 48.317,68.927 46.609,69.086 45.539 C 69.414 43.327,69.506 42.943,70.144 41.143 C 70.735 39.474,71.068 38.023,71.342 35.917 C 71.515 34.593,72.038 32.847,72.747 31.228 C 73.396 29.746,73.418 26.552,72.783 26.028 C 71.772 25.196,69.673 24.541,68.750 24.770 M70.415 26.020 C 72.176 26.509,72.534 27.979,71.517 30.556 C 71.264 31.196,70.898 32.953,70.660 34.667 C 70.476 35.987,70.194 36.993,69.342 39.372 C 69.153 39.897,68.822 41.397,68.605 42.705 C 68.355 44.210,67.932 45.910,67.452 47.333 C 66.975 48.747,66.596 50.265,66.432 51.417 C 66.170 53.260,65.875 54.421,65.119 56.591 C 64.894 57.237,64.586 58.512,64.435 59.424 C 64.038 61.815,63.863 62.530,63.163 64.602 C 62.579 66.335,62.454 66.901,61.994 69.917 C 61.896 70.558,61.529 71.871,61.178 72.833 C 60.531 74.609,60.189 76.012,59.817 78.417 C 59.607 79.773,59.173 81.185,58.459 82.833 C 58.240 83.337,57.960 84.072,57.835 84.465 C 57.604 85.196,55.929 86.824,54.750 87.464 C 54.127 87.803,51.769 87.841,51.194 87.522 C 49.573 86.623,48.882 84.257,49.459 81.583 C 49.558 81.125,49.728 80.199,49.837 79.526 C 50.021 78.391,50.392 77.298,51.188 75.541 C 51.364 75.151,51.686 73.988,51.902 72.958 C 52.117 71.927,52.602 70.324,52.979 69.396 C 53.355 68.467,53.812 66.952,53.994 66.029 C 54.176 65.105,54.661 63.515,55.071 62.494 C 55.481 61.474,55.934 60.064,56.078 59.361 C 56.569 56.956,56.700 56.489,57.154 55.537 C 57.855 54.063,57.965 53.715,58.348 51.750 C 58.555 50.685,58.969 49.304,59.335 48.456 C 59.940 47.051,60.265 45.957,60.659 44.000 C 60.760 43.496,61.207 42.146,61.652 41.000 C 62.136 39.751,62.538 38.383,62.656 37.583 C 62.823 36.441,63.632 33.944,64.005 33.417 C 64.214 33.120,64.633 31.614,64.839 30.417 C 65.388 27.228,67.831 25.302,70.415 26.020 M95.083 26.883 C 92.797 27.840,92.000 28.684,92.000 30.148 C 92.000 30.314,91.934 30.668,91.854 30.933 C 91.194 33.121,90.432 37.593,90.167 40.833 C 89.863 44.562,89.656 46.164,89.238 48.000 C 88.463 51.405,88.282 52.554,88.004 55.833 C 87.625 60.292,87.518 61.027,86.674 65.000 C 86.305 66.735,85.916 69.967,85.756 72.613 C 85.635 74.611,85.560 75.082,84.696 79.250 C 83.298 85.993,83.447 89.779,85.164 91.167 C 85.221 91.212,85.470 91.520,85.718 91.850 C 85.966 92.180,86.487 92.584,86.876 92.748 C 87.265 92.911,87.846 93.161,88.167 93.302 C 90.364 94.271,93.750 93.061,94.848 90.915 C 96.274 88.126,96.584 86.209,97.000 77.583 C 97.273 71.946,97.501 68.709,97.765 66.750 C 97.901 65.742,98.085 64.335,98.173 63.625 C 98.261 62.915,98.406 61.752,98.495 61.042 C 98.785 58.726,98.984 55.992,99.171 51.750 C 99.415 46.194,99.702 43.046,100.740 34.500 C 101.200 30.721,101.039 29.370,100.011 28.349 C 98.697 27.043,96.362 26.348,95.083 26.883 M97.856 28.193 C 98.631 28.425,99.193 29.118,99.494 30.212 C 99.713 31.010,99.705 31.222,99.335 34.500 C 99.073 36.827,98.859 40.202,98.667 45.041 C 98.499 49.298,98.396 50.552,97.928 54.083 C 97.041 60.762,96.905 62.134,96.669 66.750 C 96.294 74.090,96.147 76.459,95.987 77.750 C 95.769 79.512,95.537 81.372,95.338 82.958 C 95.249 83.669,95.096 84.925,94.998 85.750 C 94.743 87.911,94.480 89.339,94.225 89.951 C 93.015 92.850,87.647 93.289,86.160 90.610 C 85.948 90.229,85.732 89.879,85.679 89.833 C 84.886 89.143,84.658 86.092,85.219 83.667 C 85.922 80.621,86.075 79.518,86.336 75.583 C 86.470 73.557,86.707 71.848,87.167 69.583 C 88.087 65.053,88.124 64.822,88.333 62.333 C 88.719 57.714,88.860 56.610,89.354 54.292 C 90.098 50.810,90.280 49.666,90.492 47.167 C 90.828 43.196,91.015 41.816,91.665 38.500 C 92.016 36.712,92.387 34.462,92.491 33.500 C 92.854 30.141,93.002 29.480,93.513 28.933 C 94.302 28.089,96.347 27.741,97.856 28.193 M50.833 35.734 C 48.872 36.314,47.167 37.467,47.167 38.213 C 47.167 38.382,46.685 39.363,46.167 40.250 C 45.475 41.433,45.221 42.057,44.859 43.453 C 44.665 44.206,44.205 45.386,43.838 46.075 C 43.471 46.764,43.010 47.947,42.815 48.705 C 42.619 49.463,42.139 50.721,41.748 51.500 C 41.069 52.856,40.952 53.186,40.478 55.083 C 40.300 55.796,39.404 57.722,39.005 58.250 C 38.935 58.342,38.709 59.092,38.502 59.917 C 38.295 60.742,37.829 61.979,37.468 62.667 C 35.861 65.721,35.603 69.819,36.941 71.030 C 37.798 71.805,39.367 72.376,40.407 72.292 C 41.592 72.197,44.465 70.927,44.912 70.301 C 46.215 68.475,47.500 65.956,47.500 65.226 C 47.500 64.632,48.065 62.853,48.658 61.582 C 49.252 60.309,49.660 58.974,49.931 57.417 C 49.995 57.050,50.249 56.300,50.495 55.750 C 51.260 54.041,51.637 52.963,51.923 51.667 C 52.227 50.293,52.425 49.706,53.046 48.333 C 53.649 47.003,53.791 46.563,54.075 45.140 C 54.359 43.717,54.464 43.408,55.190 41.843 C 55.780 40.570,56.064 39.067,55.915 38.001 C 55.665 36.207,53.102 35.063,50.833 35.734 M182.865 36.749 C 181.692 37.736,181.603 38.196,181.505 43.798 C 181.399 49.858,181.663 49.511,177.678 48.823 C 175.899 48.516,173.531 48.658,171.423 49.199 C 170.860 49.343,169.031 50.659,168.861 51.042 C 168.831 51.110,168.712 51.167,168.598 51.167 C 168.314 51.167,167.782 51.775,167.310 52.637 C 167.094 53.034,166.711 53.709,166.459 54.137 C 165.547 55.691,165.340 56.308,165.047 58.344 C 164.633 61.234,164.635 68.554,165.052 71.417 C 165.429 74.010,165.413 73.969,167.029 76.368 C 167.196 76.617,167.333 76.926,167.333 77.055 C 167.333 77.292,169.802 79.833,170.033 79.833 C 170.101 79.833,170.584 80.029,171.107 80.268 C 174.534 81.835,176.392 81.826,180.035 80.225 C 181.510 79.576,182.067 79.583,182.876 80.261 C 184.174 81.350,186.510 80.952,187.740 79.432 L 188.250 78.802 188.250 58.776 L 188.250 38.750 187.870 38.000 C 187.098 36.478,186.836 36.333,184.857 36.333 C 183.503 36.333,183.311 36.373,182.865 36.749 M53.493 36.933 C 54.843 37.474,55.089 38.893,54.183 40.917 C 54.019 41.283,53.791 42.071,53.677 42.667 C 53.377 44.228,52.887 45.737,52.307 46.886 C 51.792 47.906,51.335 49.387,51.331 50.050 C 51.330 50.252,50.989 51.242,50.574 52.250 C 49.715 54.338,49.459 55.135,49.159 56.667 C 48.970 57.631,48.324 59.342,47.810 60.239 C 47.565 60.666,47.378 61.326,47.073 62.833 C 46.798 64.187,46.273 65.670,45.833 66.333 C 45.681 66.563,45.380 67.195,45.164 67.738 C 44.813 68.618,44.050 69.571,43.117 70.292 C 42.367 70.871,39.999 71.160,38.778 70.821 C 37.422 70.444,37.083 69.868,37.085 67.942 L 37.087 66.250 37.936 64.500 C 38.404 63.538,38.880 62.300,38.995 61.750 C 39.109 61.200,39.571 60.018,40.020 59.123 C 40.502 58.163,40.950 56.969,41.115 56.207 C 41.285 55.418,41.698 54.333,42.176 53.417 C 42.607 52.592,43.085 51.392,43.238 50.750 C 43.392 50.108,43.882 48.833,44.327 47.917 C 45.208 46.103,45.500 45.315,45.500 44.752 C 45.500 44.551,45.871 43.629,46.323 42.703 C 46.776 41.777,47.257 40.696,47.391 40.301 C 47.826 39.022,48.024 38.713,48.931 37.896 C 50.251 36.708,52.005 36.338,53.493 36.933 M186.299 38.135 C 186.575 38.392,186.882 38.898,186.982 39.260 C 187.291 40.372,187.236 77.794,186.924 78.540 C 186.391 79.815,183.888 79.913,182.843 78.699 C 182.063 77.794,181.445 77.755,180.542 78.553 C 178.341 80.501,172.153 80.344,170.077 78.287 C 169.687 77.900,169.078 77.318,168.725 76.993 C 168.372 76.668,167.979 76.106,167.852 75.743 C 167.725 75.380,167.362 74.521,167.046 73.833 C 166.166 71.922,166.038 71.419,165.845 69.116 C 165.358 63.286,165.864 57.596,167.014 55.981 C 167.189 55.734,167.333 55.452,167.333 55.354 C 167.333 53.488,171.327 50.003,173.766 49.742 C 176.253 49.476,177.745 49.700,179.583 50.615 C 182.593 52.113,182.667 51.985,182.667 45.233 C 182.667 39.730,182.776 38.843,183.539 38.130 C 184.257 37.459,185.579 37.462,186.299 38.135 M107.965 40.690 C 105.929 41.261,105.180 42.782,104.983 46.743 C 104.781 50.801,104.519 54.748,104.325 56.667 C 102.919 70.538,102.897 75.806,104.238 77.303 C 104.541 77.641,104.903 78.142,105.044 78.417 C 105.814 79.925,109.012 80.872,111.178 80.233 C 113.514 79.544,113.855 79.213,114.598 76.917 L 115.083 75.417 115.083 60.000 L 115.083 44.583 114.470 43.333 C 113.272 40.889,110.813 39.890,107.965 40.690 M111.691 41.836 C 112.643 42.489,113.349 43.225,113.604 43.829 C 113.882 44.490,113.959 75.648,113.684 76.605 C 112.621 80.314,107.278 80.416,105.338 76.765 C 104.218 74.656,104.208 74.471,104.830 67.333 C 105.204 63.039,105.435 58.552,105.678 50.833 C 105.880 44.406,105.895 44.319,107.020 42.898 C 108.322 41.251,110.212 40.822,111.691 41.836 M274.002 42.216 C 272.838 42.825,272.628 43.339,272.533 45.810 C 272.431 48.479,272.149 49.000,270.808 49.000 C 267.220 49.000,266.971 54.379,270.541 54.781 C 272.510 55.002,272.392 54.346,272.515 65.750 C 272.638 77.127,272.583 76.788,274.720 79.328 C 277.927 83.139,284.854 81.379,284.026 76.963 C 283.763 75.560,283.592 75.423,281.387 74.844 C 279.697 74.399,279.596 73.680,279.695 62.833 C 279.768 54.803,279.558 55.463,282.389 54.389 C 283.836 53.840,284.119 53.354,284.022 51.583 C 283.935 49.982,282.918 49.033,281.250 48.998 C 281.067 48.994,280.654 48.774,280.333 48.508 L 279.750 48.025 279.662 45.851 C 279.577 43.763,279.555 43.659,279.114 43.199 C 277.886 41.917,275.463 41.452,274.002 42.216 M337.333 42.325 C 335.709 43.167,335.596 43.376,335.500 45.721 C 335.396 48.246,335.071 48.768,333.417 49.072 C 331.373 49.447,330.415 51.276,331.235 53.239 C 331.454 53.763,332.810 54.667,333.378 54.667 C 333.479 54.667,333.883 54.822,334.276 55.013 C 335.400 55.557,335.386 55.436,335.491 65.500 C 335.572 73.362,335.616 74.486,335.862 75.000 C 336.015 75.321,336.192 75.771,336.255 76.000 C 336.677 77.528,337.943 79.833,338.360 79.833 C 338.434 79.833,338.876 80.068,339.341 80.354 C 342.144 82.078,345.511 81.793,346.501 79.747 C 346.952 78.817,346.922 76.625,346.446 75.717 C 346.165 75.180,346.137 75.167,343.850 74.528 C 342.738 74.218,342.755 74.358,342.699 65.113 C 342.639 55.292,342.674 55.015,343.979 54.987 C 345.951 54.946,346.924 53.804,346.798 51.679 C 346.676 49.633,346.234 49.120,344.446 48.948 C 343.013 48.811,342.667 48.295,342.667 46.293 C 342.667 42.327,340.474 40.696,337.333 42.325 M277.392 43.478 C 277.999 44.011,278.167 44.603,278.167 46.221 C 278.167 48.628,278.452 49.110,280.314 49.853 C 283.085 50.958,283.329 53.019,280.766 53.664 C 279.531 53.975,279.080 54.248,278.641 54.954 L 278.250 55.583 278.250 64.167 C 278.250 74.786,278.190 74.533,281.109 76.139 C 284.635 78.080,281.539 80.845,277.254 79.582 C 275.989 79.208,275.642 78.830,274.500 76.572 L 273.583 74.760 273.488 65.005 C 273.376 53.443,273.480 54.023,271.453 53.736 C 269.623 53.477,269.038 52.923,269.253 51.648 C 269.373 50.938,270.166 50.167,270.778 50.167 C 272.700 50.167,273.356 49.259,273.488 46.417 C 273.591 44.200,273.692 43.844,274.333 43.417 C 275.014 42.963,276.847 43.000,277.392 43.478 M340.717 43.367 C 341.428 43.732,341.665 44.485,341.666 46.380 C 341.667 49.098,342.079 49.762,343.877 49.948 C 345.081 50.072,345.785 50.660,345.848 51.592 C 345.957 53.228,345.774 53.439,344.024 53.687 C 341.571 54.034,341.667 53.600,341.667 64.376 C 341.667 75.145,341.771 75.667,343.919 75.667 C 345.742 75.667,346.753 78.469,345.278 79.436 C 343.082 80.875,338.536 79.421,337.833 77.053 C 337.146 74.741,337.140 74.647,337.026 65.000 C 336.910 55.160,336.918 55.266,336.186 54.484 C 336.038 54.326,335.289 53.989,334.522 53.736 C 331.669 52.795,331.865 51.124,334.984 49.781 C 336.744 49.024,336.895 48.768,337.007 46.363 C 337.123 43.840,337.392 43.314,338.667 43.116 C 339.206 43.031,340.333 43.169,340.717 43.367 M201.867 48.927 C 200.210 49.185,198.840 50.017,196.946 51.917 C 195.758 53.107,195.796 53.042,193.834 57.250 C 193.055 58.922,192.726 65.484,193.180 70.326 C 193.550 74.272,196.641 79.023,199.500 80.038 C 204.737 81.897,207.389 81.901,211.997 80.057 C 213.948 79.277,215.833 77.350,215.833 76.137 C 215.833 75.330,215.270 73.696,214.845 73.271 C 214.088 72.514,211.607 72.570,210.868 73.362 C 209.723 74.587,207.563 75.103,204.806 74.809 C 202.169 74.527,200.640 72.702,200.402 69.549 L 200.287 68.023 200.852 67.679 C 201.395 67.348,201.649 67.334,207.500 67.331 C 217.347 67.326,217.853 66.931,216.658 60.182 C 215.944 56.151,215.417 54.241,214.807 53.469 C 214.566 53.165,214.062 52.526,213.687 52.049 C 213.312 51.572,212.558 50.879,212.013 50.509 C 211.467 50.138,210.971 49.755,210.911 49.657 C 210.411 48.849,205.114 48.421,201.867 48.927 M252.333 48.865 C 251.029 49.084,250.221 49.343,249.878 49.650 C 249.241 50.220,248.067 51.124,247.736 51.298 C 247.190 51.587,245.342 54.522,245.075 55.524 C 244.584 57.368,244.963 61.238,245.657 61.469 C 245.754 61.501,245.833 61.605,245.833 61.699 C 245.833 61.794,246.173 62.322,246.587 62.874 C 247.002 63.425,247.395 63.969,247.462 64.082 C 247.712 64.506,251.819 66.820,253.064 67.238 C 254.542 67.734,255.588 68.235,255.783 68.540 C 255.856 68.656,256.202 68.882,256.551 69.043 C 258.835 70.100,259.724 71.717,259.021 73.535 C 258.284 75.442,252.675 75.216,251.999 73.252 C 251.116 70.690,247.964 69.262,245.645 70.373 C 243.686 71.312,244.049 74.864,246.367 77.436 C 247.591 78.794,247.630 78.833,247.746 78.833 C 247.802 78.833,248.025 79.010,248.242 79.227 C 249.186 80.171,253.539 81.500,255.687 81.500 C 257.304 81.500,257.326 81.494,261.830 79.953 C 263.952 79.226,266.531 74.984,266.641 72.037 L 266.699 70.491 265.765 68.578 C 265.251 67.525,264.694 66.534,264.527 66.374 C 262.943 64.860,262.186 64.281,260.996 63.675 C 260.234 63.287,259.342 62.800,259.014 62.593 C 258.685 62.387,258.117 62.125,257.750 62.011 C 255.889 61.434,253.407 60.034,252.625 59.119 C 251.722 58.062,252.397 55.664,253.727 55.207 C 256.031 54.415,257.120 54.875,259.167 57.501 C 261.028 59.890,263.469 60.220,265.244 58.322 C 266.216 57.284,266.093 56.002,264.741 53.059 C 264.384 52.280,261.344 49.615,260.417 49.266 C 259.025 48.743,254.414 48.515,252.333 48.865 M295.995 48.907 C 294.583 49.126,293.534 49.577,292.571 50.380 C 292.211 50.680,291.602 51.128,291.218 51.375 C 290.820 51.631,290.320 52.169,290.059 52.621 C 289.806 53.059,289.545 53.455,289.479 53.502 C 288.983 53.854,287.975 56.304,288.049 56.977 C 288.307 59.307,293.798 59.836,294.930 57.639 C 297.071 53.481,303.014 54.177,302.619 58.539 C 302.456 60.338,301.751 60.833,299.352 60.834 C 297.187 60.834,293.185 61.923,292.212 62.776 C 290.786 64.027,290.612 64.167,290.490 64.167 C 290.420 64.167,290.003 64.673,289.562 65.292 C 289.122 65.910,288.630 66.560,288.468 66.736 C 287.446 67.846,287.255 74.280,288.187 76.250 C 288.360 76.617,288.878 77.356,289.338 77.893 C 289.798 78.430,290.242 78.995,290.324 79.149 C 290.407 79.304,290.649 79.515,290.862 79.618 C 292.169 80.253,293.530 80.833,293.711 80.833 C 293.827 80.833,294.332 80.983,294.833 81.167 C 296.428 81.750,300.081 81.214,301.179 80.235 C 301.728 79.746,302.890 79.758,304.452 80.270 C 306.954 81.090,308.898 80.911,309.732 79.784 C 310.107 79.276,310.187 61.343,309.829 57.763 C 309.679 56.261,308.967 54.099,308.305 53.141 C 308.137 52.898,308.000 52.587,308.000 52.450 C 308.000 52.170,307.306 51.415,306.589 50.917 C 306.325 50.733,305.804 50.307,305.430 49.969 C 304.138 48.803,299.814 48.316,295.995 48.907 M324.750 48.918 C 324.017 49.035,323.090 49.245,322.692 49.385 C 322.040 49.614,321.880 49.613,321.108 49.379 C 318.958 48.728,316.465 48.964,315.983 49.865 C 315.347 51.053,314.963 74.329,315.518 78.060 C 315.920 80.761,318.469 81.730,320.911 80.109 C 322.485 79.064,322.403 79.657,322.510 68.583 C 322.611 58.028,322.623 57.900,323.583 56.891 C 324.095 56.354,325.952 55.667,326.895 55.667 C 328.756 55.667,329.785 53.911,329.550 51.141 C 329.417 49.582,329.073 49.193,327.575 48.903 C 326.241 48.645,326.467 48.644,324.750 48.918 M359.221 48.924 C 357.772 49.150,357.563 49.236,356.119 50.196 C 354.605 51.204,352.816 53.109,352.391 54.167 C 352.021 55.089,351.332 56.674,350.896 57.604 C 349.759 60.032,349.856 70.638,351.038 73.167 C 352.290 75.845,352.500 76.318,352.500 76.465 C 352.500 76.548,353.231 77.321,354.125 78.183 L 355.750 79.750 357.667 80.368 C 361.765 81.689,362.950 81.795,365.781 81.097 C 370.381 79.962,373.115 78.051,372.954 76.083 C 372.872 75.086,372.300 73.559,371.834 73.093 C 371.265 72.524,368.000 72.748,368.000 73.356 C 368.000 73.437,367.569 73.784,367.042 74.127 L 366.083 74.750 363.417 74.750 C 360.386 74.750,360.068 74.645,358.953 73.283 C 357.925 72.026,357.625 71.237,357.537 69.568 L 357.457 68.053 357.963 67.693 C 358.458 67.341,358.588 67.333,364.453 67.333 C 373.387 67.333,374.073 67.102,374.294 64.012 C 374.425 62.174,373.697 58.105,372.756 55.417 C 372.628 55.050,372.482 54.555,372.431 54.317 C 372.249 53.456,370.137 51.078,368.806 50.234 C 368.470 50.021,368.144 49.764,368.081 49.663 C 367.574 48.843,362.469 48.418,359.221 48.924 M386.917 49.024 C 385.222 49.391,383.643 49.455,382.947 49.183 C 382.344 48.947,380.298 48.947,379.519 49.182 C 377.989 49.645,377.981 49.740,378.037 65.764 L 378.083 79.083 378.455 79.604 C 379.343 80.849,381.638 81.149,383.392 80.250 C 385.212 79.317,385.069 80.239,385.179 68.750 C 385.239 62.457,385.341 58.519,385.453 58.127 C 385.679 57.334,386.460 56.403,387.000 56.283 C 387.229 56.232,387.867 56.074,388.417 55.931 C 388.967 55.788,389.764 55.671,390.189 55.669 C 391.327 55.665,391.566 55.105,391.639 52.274 C 391.737 48.465,391.199 48.095,386.917 49.024 M219.657 49.377 C 218.538 50.131,218.577 53.954,219.727 56.153 C 220.231 57.118,220.933 59.328,221.081 60.417 C 221.223 61.470,221.440 62.237,221.835 63.083 C 222.423 64.347,223.195 66.949,223.417 68.417 C 223.502 68.979,223.960 70.160,224.485 71.167 C 224.634 71.453,225.216 73.770,225.510 75.250 C 226.726 81.363,231.831 82.855,233.497 77.583 C 233.613 77.217,233.841 76.654,234.004 76.333 C 234.474 75.409,234.639 74.850,234.905 73.278 C 235.181 71.652,235.615 70.268,236.327 68.750 C 236.584 68.200,236.888 67.225,237.001 66.583 C 237.380 64.432,237.940 62.576,238.496 61.621 C 238.668 61.325,238.896 60.596,239.003 60.000 C 239.277 58.468,240.141 55.553,240.584 54.667 C 241.726 52.384,241.429 49.615,239.998 49.186 C 236.465 48.127,234.423 49.531,233.842 53.417 C 233.602 55.025,233.079 56.896,232.675 57.596 C 232.346 58.165,232.184 58.824,231.655 61.741 C 231.107 64.758,230.065 66.718,229.486 65.822 C 229.170 65.334,228.637 63.367,228.404 61.833 C 228.264 60.907,227.926 59.662,227.592 58.833 C 226.947 57.238,226.460 55.387,226.168 53.417 C 225.889 51.541,225.180 50.285,223.915 49.426 C 223.025 48.822,220.523 48.793,219.657 49.377 M259.127 50.138 C 263.097 52.117,265.422 55.213,264.457 57.235 C 263.808 58.598,261.236 58.480,260.326 57.045 C 259.647 55.974,257.715 54.021,257.188 53.873 C 255.779 53.477,253.290 53.778,252.505 54.438 C 249.587 56.893,251.268 61.070,255.741 62.482 C 256.435 62.701,257.476 63.190,258.053 63.569 C 258.630 63.949,259.436 64.366,259.843 64.496 C 260.734 64.781,261.570 65.285,262.262 65.952 C 262.543 66.224,263.011 66.586,263.301 66.757 C 264.913 67.710,265.582 71.974,264.599 75.032 C 263.234 79.281,257.060 81.180,250.750 79.292 C 250.114 79.102,247.167 76.807,247.167 76.503 C 247.167 76.426,246.884 76.000,246.539 75.557 C 245.219 73.862,245.056 71.991,246.179 71.411 C 247.673 70.638,249.005 71.145,250.257 72.964 C 251.510 74.784,251.954 75.215,252.858 75.487 C 253.257 75.607,253.808 75.790,254.083 75.894 C 255.412 76.397,257.942 75.949,259.379 74.958 C 260.569 74.136,260.784 71.465,259.779 69.974 C 259.101 68.967,256.067 67.049,254.282 66.498 C 253.714 66.322,252.800 65.906,252.250 65.572 C 251.700 65.238,250.871 64.790,250.408 64.576 C 248.074 63.497,246.163 60.489,246.153 57.876 C 246.147 56.322,247.082 53.724,248.033 52.650 C 248.463 52.166,250.697 50.677,251.785 50.150 C 253.163 49.482,257.797 49.475,259.127 50.138 M209.074 50.144 C 209.527 50.345,210.127 50.684,210.407 50.898 C 210.688 51.111,211.222 51.441,211.595 51.631 C 212.468 52.075,214.520 55.136,214.804 56.417 C 215.524 59.667,215.643 64.600,215.022 65.470 C 214.420 66.314,214.254 66.333,207.550 66.333 C 198.534 66.333,198.184 66.543,199.487 71.167 C 200.387 74.359,201.694 75.486,205.274 76.155 C 206.510 76.386,209.584 75.669,211.000 74.820 C 213.578 73.274,216.266 75.659,213.833 77.335 C 213.512 77.556,213.150 77.874,213.027 78.042 C 212.186 79.195,209.530 79.875,205.833 79.881 C 201.695 79.889,200.273 79.478,198.271 77.693 C 196.208 75.854,196.276 75.972,194.793 71.667 C 194.184 69.900,194.096 69.094,194.101 65.333 C 194.106 61.099,194.169 60.698,195.428 56.909 C 196.044 55.055,196.325 54.448,196.813 53.917 C 197.149 53.550,197.636 52.971,197.895 52.630 C 198.290 52.109,199.910 50.998,201.466 50.181 C 202.680 49.543,207.666 49.519,209.074 50.144 M303.228 50.148 C 306.472 52.000,307.321 52.944,307.820 55.250 C 307.939 55.800,308.113 56.475,308.207 56.750 C 308.309 57.048,308.430 60.919,308.507 66.333 C 308.623 74.517,308.667 75.543,308.959 76.692 C 309.609 79.252,307.820 80.334,305.047 79.056 C 302.979 78.104,302.262 78.093,301.039 78.998 C 298.863 80.606,293.038 80.090,291.177 78.124 C 288.281 75.066,287.604 70.570,289.580 67.523 C 289.796 67.189,290.157 66.579,290.382 66.167 C 290.607 65.754,291.093 65.192,291.463 64.917 C 294.807 62.425,294.859 62.407,299.185 62.184 C 303.227 61.975,303.591 61.690,303.572 58.750 C 303.548 54.993,302.406 53.770,298.917 53.765 C 296.463 53.762,295.524 54.290,294.483 56.262 C 293.122 58.840,288.815 58.445,289.811 55.833 C 289.933 55.512,290.091 55.100,290.161 54.917 C 290.685 53.548,291.942 52.124,293.180 51.495 C 293.585 51.289,294.217 50.920,294.583 50.674 C 295.945 49.760,296.390 49.682,299.917 49.738 C 302.316 49.776,302.648 49.817,303.228 50.148 M327.849 50.048 C 329.439 51.041,328.795 53.630,326.869 53.991 C 324.698 54.397,322.685 55.778,321.755 57.501 C 320.824 59.224,320.839 59.042,320.836 68.855 C 320.833 79.874,320.912 79.500,318.583 79.500 C 317.414 79.500,316.867 79.237,316.572 78.531 C 316.255 77.771,316.214 52.962,316.528 51.699 C 316.958 49.968,318.685 49.492,320.298 50.660 C 321.412 51.467,321.890 51.466,323.422 50.649 C 325.238 49.681,326.899 49.455,327.849 50.048 M366.362 50.215 C 366.881 50.462,367.406 50.763,367.528 50.883 C 367.650 51.004,368.144 51.317,368.625 51.578 C 369.209 51.895,369.632 52.279,369.900 52.735 C 370.121 53.110,370.466 53.604,370.667 53.833 C 371.674 54.980,372.164 56.878,372.519 60.996 C 372.800 64.273,372.596 65.274,371.457 66.199 C 371.435 66.217,368.342 66.274,364.583 66.324 C 356.916 66.428,356.980 66.417,356.416 67.667 C 356.127 68.308,356.134 68.420,356.606 70.833 C 357.619 76.013,362.415 77.593,368.412 74.723 C 371.148 73.413,373.225 75.583,370.946 77.371 C 370.563 77.671,370.011 78.153,369.719 78.442 C 368.144 80.000,360.788 80.448,357.471 79.187 C 355.883 78.584,353.245 75.715,352.749 74.055 C 352.590 73.520,352.323 72.671,352.155 72.167 C 351.418 69.946,351.301 69.027,351.298 65.409 C 351.295 61.758,351.396 60.893,352.093 58.583 C 352.315 57.850,352.656 56.709,352.852 56.049 C 353.109 55.183,353.411 54.611,353.933 53.999 C 354.332 53.532,354.781 52.940,354.933 52.684 C 355.172 52.279,357.808 50.564,358.902 50.103 C 360.372 49.482,364.965 49.551,366.362 50.215 M391.150 50.192 C 391.394 50.890,391.384 52.921,391.133 53.613 L 390.933 54.167 389.706 54.167 C 387.681 54.167,385.508 55.454,384.640 57.167 C 383.651 59.119,383.667 58.927,383.667 68.799 C 383.667 77.629,383.658 77.887,383.326 78.477 C 382.567 79.826,380.083 79.878,379.221 78.563 C 378.769 77.872,378.747 52.458,379.198 51.462 C 379.812 50.108,381.490 49.756,382.895 50.687 C 383.897 51.351,384.827 51.301,386.362 50.503 C 387.697 49.809,388.121 49.705,389.692 49.684 L 390.967 49.667 391.150 50.192 M223.128 50.446 C 223.823 50.965,225.232 53.897,225.487 55.354 C 225.998 58.283,226.390 59.951,226.764 60.798 C 227.329 62.075,227.615 63.109,227.917 64.968 C 228.551 68.858,229.344 69.649,230.961 68.001 C 231.727 67.219,231.851 66.849,232.393 63.750 C 232.617 62.467,232.963 60.967,233.161 60.417 C 233.965 58.192,234.195 57.326,234.512 55.333 C 234.830 53.339,235.424 51.705,236.052 51.097 C 237.600 49.600,239.840 49.908,239.829 51.617 C 239.825 52.299,239.699 52.856,239.194 54.417 C 239.016 54.967,238.703 56.201,238.499 57.161 C 238.295 58.120,237.873 59.484,237.562 60.193 C 237.245 60.913,236.787 62.462,236.525 63.699 C 236.267 64.919,235.848 66.367,235.594 66.917 C 234.865 68.494,234.720 68.960,234.323 71.000 C 234.117 72.054,233.745 73.368,233.495 73.919 C 232.930 75.164,232.565 76.228,232.408 77.088 C 232.092 78.825,231.400 79.500,229.938 79.500 C 228.633 79.500,228.276 79.136,227.599 77.115 C 227.359 76.400,226.986 75.462,226.770 75.032 C 226.555 74.602,226.295 73.875,226.194 73.417 C 225.499 70.284,225.283 69.397,225.175 69.250 C 224.884 68.851,224.014 66.324,223.827 65.333 C 223.483 63.514,223.197 62.513,222.754 61.577 C 222.107 60.209,222.019 59.927,221.568 57.794 C 221.338 56.703,220.881 55.200,220.553 54.453 C 219.294 51.590,219.777 49.879,221.799 50.041 C 222.329 50.084,222.859 50.245,223.128 50.446 M175.500 53.825 C 174.187 54.041,171.833 55.806,171.833 56.575 C 171.833 56.722,171.618 57.272,171.356 57.796 C 169.761 60.979,169.725 68.535,171.287 72.000 C 172.468 74.618,172.470 74.622,173.343 75.057 C 177.041 76.900,180.877 75.760,182.451 72.352 C 182.721 71.766,182.750 58.644,182.483 57.584 C 182.267 56.728,180.217 54.498,179.289 54.110 C 178.594 53.820,176.491 53.661,175.500 53.825 M203.583 53.749 C 203.492 53.779,203.219 53.847,202.978 53.900 C 202.323 54.044,200.413 55.892,200.093 56.692 C 199.111 59.145,199.134 61.265,200.151 61.956 C 200.788 62.389,208.685 62.499,209.756 62.090 C 211.295 61.502,211.219 57.950,209.626 56.056 C 209.236 55.592,208.723 54.969,208.486 54.672 C 207.868 53.896,204.847 53.327,203.583 53.749 M360.417 53.810 C 358.434 54.333,357.008 56.390,356.637 59.264 C 356.274 62.072,356.555 62.235,361.860 62.302 C 366.718 62.364,367.233 62.280,367.617 61.365 C 368.066 60.294,367.719 56.878,367.095 56.233 C 366.997 56.131,366.519 55.626,366.034 55.109 C 365.548 54.593,364.991 54.085,364.796 53.980 C 364.369 53.751,361.119 53.625,360.417 53.810 M178.667 55.300 C 179.240 55.547,180.368 56.642,180.941 57.507 L 181.417 58.225 181.417 64.904 L 181.417 71.583 180.986 72.192 C 180.748 72.526,180.464 73.017,180.354 73.284 C 179.723 74.808,176.456 75.326,174.316 74.241 C 170.899 72.510,170.682 58.052,174.042 55.974 C 174.385 55.762,174.667 55.543,174.667 55.487 C 174.667 54.951,177.543 54.817,178.667 55.300 M206.383 54.942 C 208.520 55.295,210.769 60.525,208.995 61.019 C 208.167 61.250,201.440 61.174,201.119 60.930 C 200.107 60.163,200.604 57.197,201.895 56.297 C 202.182 56.097,202.477 55.836,202.550 55.716 C 202.986 55.007,204.693 54.662,206.383 54.942 M363.521 54.937 C 365.560 55.274,367.774 59.876,366.398 60.918 C 365.873 61.315,358.667 61.272,358.169 60.868 C 357.442 60.280,357.555 58.374,358.393 57.083 C 359.549 55.301,361.298 54.569,363.521 54.937 M299.416 65.336 C 298.636 65.491,296.736 66.191,295.672 66.716 C 293.172 67.950,292.632 72.844,294.774 74.856 C 296.206 76.202,300.861 75.847,302.400 74.275 C 303.380 73.273,303.583 72.468,303.583 69.595 C 303.583 65.428,302.829 64.657,299.416 65.336 M301.844 66.839 C 302.821 67.362,303.166 70.481,302.421 72.052 C 300.948 75.155,295.722 75.802,295.025 72.968 C 294.441 70.590,295.094 68.252,296.545 67.526 C 297.734 66.931,301.181 66.484,301.844 66.839 " stroke="none" fill="#a0aad3" fill-rule="evenodd"/><path id="path3" d="M48.542 12.115 C 48.702 12.157,48.965 12.157,49.125 12.115 C 49.285 12.073,49.154 12.039,48.833 12.039 C 48.512 12.039,48.381 12.073,48.542 12.115 M55.875 17.615 C 56.035 17.657,56.298 17.657,56.458 17.615 C 56.619 17.573,56.487 17.539,56.167 17.539 C 55.846 17.539,55.715 17.573,55.875 17.615 M83.148 20.563 C 81.499 21.153,80.280 22.718,80.010 24.596 C 79.906 25.322,79.736 26.479,79.632 27.167 C 79.529 27.854,79.120 29.411,78.724 30.626 C 78.328 31.842,77.968 33.117,77.925 33.460 C 77.406 37.556,77.333 37.925,76.579 40.250 C 75.957 42.166,75.770 43.033,75.422 45.595 C 75.285 46.609,75.018 47.922,74.829 48.511 C 73.979 51.170,73.681 52.352,73.508 53.750 C 73.195 56.291,73.000 57.172,72.257 59.417 C 71.751 60.941,71.477 62.127,71.332 63.417 C 71.089 65.578,70.766 67.041,69.941 69.715 C 69.608 70.796,69.260 72.334,69.167 73.132 C 68.903 75.416,68.757 76.100,68.020 78.500 C 67.639 79.737,67.248 81.275,67.151 81.917 C 66.661 85.144,66.454 86.293,66.253 86.909 C 65.306 89.809,65.016 90.976,64.840 92.583 C 64.729 93.592,64.520 94.867,64.376 95.417 C 63.444 98.961,64.576 102.396,66.899 103.071 C 70.910 104.237,74.314 101.211,74.851 96.000 C 75.368 90.987,75.742 88.880,76.841 84.804 C 76.931 84.468,77.078 83.268,77.165 82.138 C 77.324 80.092,77.581 77.860,77.741 77.132 C 77.787 76.922,78.042 75.813,78.309 74.667 C 79.051 71.473,79.147 70.909,79.336 68.667 C 79.541 66.225,79.737 64.913,80.169 63.083 C 80.342 62.350,80.644 61.075,80.840 60.250 C 81.035 59.425,81.337 57.362,81.509 55.667 C 81.897 51.852,81.919 51.735,83.165 46.833 C 83.246 46.512,83.396 45.313,83.497 44.167 C 83.859 40.080,84.106 38.581,84.982 35.167 C 85.252 34.112,85.555 32.481,85.653 31.542 C 85.752 30.602,85.913 29.065,86.009 28.125 C 86.106 27.185,86.333 25.668,86.514 24.753 C 86.883 22.881,86.830 22.581,85.928 21.444 C 85.130 20.438,84.266 20.164,83.148 20.563 M68.018 26.084 C 66.547 26.543,65.187 28.396,64.839 30.417 C 64.633 31.614,64.214 33.120,64.005 33.417 C 63.632 33.944,62.823 36.441,62.656 37.583 C 62.538 38.383,62.136 39.751,61.652 41.000 C 61.207 42.146,60.760 43.496,60.659 44.000 C 60.265 45.957,59.940 47.051,59.335 48.456 C 58.969 49.304,58.555 50.685,58.348 51.750 C 57.965 53.715,57.855 54.063,57.154 55.537 C 56.700 56.489,56.569 56.956,56.078 59.361 C 55.934 60.064,55.481 61.474,55.071 62.494 C 54.661 63.515,54.176 65.105,53.994 66.029 C 53.812 66.952,53.355 68.467,52.979 69.396 C 52.602 70.324,52.117 71.927,51.902 72.958 C 51.686 73.988,51.364 75.151,51.188 75.541 C 50.392 77.298,50.021 78.391,49.837 79.526 C 49.728 80.199,49.558 81.125,49.459 81.583 C 48.257 87.149,52.227 89.771,56.429 86.187 C 57.336 85.413,57.661 85.016,57.835 84.465 C 57.960 84.072,58.240 83.337,58.459 82.833 C 59.173 81.185,59.607 79.773,59.817 78.417 C 60.189 76.012,60.531 74.609,61.178 72.833 C 61.529 71.871,61.896 70.558,61.994 69.917 C 62.454 66.901,62.579 66.335,63.163 64.602 C 63.863 62.530,64.038 61.815,64.435 59.424 C 64.586 58.512,64.894 57.237,65.119 56.591 C 65.875 54.421,66.170 53.260,66.432 51.417 C 66.596 50.265,66.975 48.747,67.452 47.333 C 67.932 45.910,68.355 44.210,68.605 42.705 C 68.822 41.397,69.153 39.897,69.342 39.372 C 70.194 36.993,70.476 35.987,70.660 34.667 C 70.898 32.953,71.264 31.196,71.517 30.556 C 72.273 28.640,72.305 27.504,71.623 26.781 C 70.774 25.881,69.475 25.630,68.018 26.084 M121.417 28.000 C 121.775 28.367,122.105 28.667,122.151 28.667 C 122.197 28.667,121.941 28.367,121.583 28.000 C 121.225 27.633,120.895 27.333,120.849 27.333 C 120.803 27.333,121.059 27.633,121.417 28.000 M94.618 28.231 C 93.195 28.673,92.946 29.290,92.491 33.500 C 92.387 34.462,92.016 36.712,91.665 38.500 C 91.015 41.816,90.828 43.196,90.492 47.167 C 90.280 49.666,90.098 50.810,89.354 54.292 C 88.860 56.610,88.719 57.714,88.333 62.333 C 88.124 64.822,88.087 65.053,87.167 69.583 C 86.707 71.848,86.470 73.557,86.336 75.583 C 86.075 79.518,85.922 80.621,85.219 83.667 C 84.658 86.092,84.886 89.143,85.679 89.833 C 85.732 89.879,85.948 90.229,86.160 90.610 C 87.647 93.289,93.015 92.850,94.225 89.951 C 94.480 89.339,94.743 87.911,94.998 85.750 C 95.096 84.925,95.249 83.669,95.338 82.958 C 95.537 81.372,95.769 79.512,95.987 77.750 C 96.147 76.459,96.294 74.090,96.669 66.750 C 96.905 62.134,97.041 60.762,97.928 54.083 C 98.396 50.552,98.499 49.298,98.667 45.041 C 98.859 40.202,99.073 36.827,99.335 34.500 C 99.705 31.222,99.713 31.010,99.494 30.212 C 98.955 28.252,97.047 27.477,94.618 28.231 M130.709 31.250 C 130.711 31.617,130.745 31.747,130.785 31.540 C 130.824 31.332,130.823 31.032,130.781 30.873 C 130.739 30.714,130.707 30.883,130.709 31.250 M130.887 37.333 C 130.887 37.929,130.917 38.173,130.954 37.875 C 130.991 37.577,130.991 37.090,130.954 36.792 C 130.917 36.494,130.887 36.737,130.887 37.333 M50.453 36.897 C 49.729 37.122,48.134 38.490,47.837 39.141 C 47.726 39.384,47.525 39.906,47.391 40.301 C 47.257 40.696,46.776 41.777,46.323 42.703 C 45.871 43.629,45.500 44.551,45.500 44.752 C 45.500 45.315,45.208 46.103,44.327 47.917 C 43.882 48.833,43.392 50.108,43.238 50.750 C 43.085 51.392,42.607 52.592,42.176 53.417 C 41.698 54.333,41.285 55.418,41.115 56.207 C 40.950 56.969,40.502 58.163,40.020 59.123 C 39.571 60.018,39.109 61.200,38.995 61.750 C 38.880 62.300,38.404 63.538,37.936 64.500 L 37.087 66.250 37.085 67.942 C 37.083 69.868,37.422 70.444,38.778 70.821 C 39.999 71.160,42.367 70.871,43.117 70.292 C 44.050 69.571,44.813 68.618,45.164 67.738 C 45.380 67.195,45.681 66.563,45.833 66.333 C 46.273 65.670,46.798 64.187,47.073 62.833 C 47.378 61.326,47.565 60.666,47.810 60.239 C 48.324 59.342,48.970 57.631,49.159 56.667 C 49.459 55.135,49.715 54.338,50.574 52.250 C 50.989 51.242,51.330 50.252,51.331 50.050 C 51.335 49.387,51.792 47.906,52.307 46.886 C 52.887 45.737,53.377 44.228,53.677 42.667 C 53.791 42.071,54.019 41.283,54.183 40.917 C 55.583 37.788,53.794 35.860,50.453 36.897 M108.371 41.599 C 107.699 41.944,106.276 43.711,106.036 44.500 C 105.939 44.821,105.778 47.671,105.678 50.833 C 105.435 58.552,105.204 63.039,104.830 67.333 C 104.208 74.471,104.218 74.656,105.338 76.765 C 107.278 80.416,112.621 80.314,113.684 76.605 C 113.959 75.648,113.882 44.490,113.604 43.829 C 112.823 41.978,109.989 40.770,108.371 41.599 M131.050 42.500 C 131.050 43.004,131.081 43.210,131.119 42.958 C 131.158 42.706,131.158 42.294,131.119 42.042 C 131.081 41.790,131.050 41.996,131.050 42.500 M277.945 44.750 C 278.071 45.574,278.167 45.714,278.164 45.069 C 278.163 44.802,278.090 44.471,278.002 44.333 C 277.894 44.163,277.875 44.296,277.945 44.750 M337.062 46.167 C 337.062 47.129,337.089 47.523,337.123 47.042 C 337.157 46.560,337.157 45.773,337.123 45.292 C 337.089 44.810,337.062 45.204,337.062 46.167 M341.550 45.333 C 341.550 45.837,341.581 46.044,341.619 45.792 C 341.658 45.540,341.658 45.127,341.619 44.875 C 341.581 44.623,341.550 44.829,341.550 45.333 M122.712 46.500 C 122.712 46.913,122.745 47.081,122.784 46.875 C 122.824 46.669,122.824 46.331,122.784 46.125 C 122.745 45.919,122.712 46.087,122.712 46.500 M18.346 46.176 C 18.339 46.319,18.450 46.582,18.593 46.760 C 18.848 47.078,18.849 47.078,18.698 46.750 C 18.614 46.567,18.503 46.304,18.452 46.167 C 18.372 45.951,18.358 45.952,18.346 46.176 M220.645 50.292 C 220.446 50.545,220.449 50.558,220.667 50.390 C 220.804 50.283,221.142 50.163,221.417 50.123 L 221.917 50.050 221.395 50.025 C 221.074 50.010,220.787 50.112,220.645 50.292 M318.294 50.118 C 318.501 50.158,318.801 50.156,318.960 50.115 C 319.120 50.073,318.950 50.040,318.583 50.042 C 318.217 50.044,318.086 50.078,318.294 50.118 M209.167 50.241 C 209.167 50.287,209.392 50.441,209.667 50.583 C 209.942 50.726,210.167 50.804,210.167 50.759 C 210.167 50.713,209.942 50.559,209.667 50.417 C 209.392 50.274,209.167 50.196,209.167 50.241 M222.750 50.362 C 222.933 50.463,223.200 50.630,223.342 50.732 C 223.483 50.833,223.423 50.748,223.207 50.542 C 222.991 50.335,222.725 50.169,222.616 50.172 C 222.506 50.175,222.567 50.260,222.750 50.362 M238.681 50.217 C 238.719 50.245,238.975 50.399,239.250 50.560 L 239.750 50.853 239.357 50.510 C 239.140 50.321,238.884 50.167,238.787 50.167 C 238.690 50.167,238.642 50.189,238.681 50.217 M333.011 50.905 C 332.802 51.127,332.671 51.409,332.719 51.530 C 332.787 51.701,332.810 51.696,332.820 51.511 C 332.827 51.379,332.996 51.098,333.196 50.886 C 333.395 50.674,333.521 50.500,333.475 50.500 C 333.429 50.500,333.220 50.682,333.011 50.905 M379.512 50.939 C 379.322 51.181,379.169 51.462,379.172 51.564 C 379.175 51.666,379.260 51.600,379.362 51.417 C 379.463 51.233,379.660 50.952,379.799 50.792 C 379.938 50.631,380.008 50.500,379.955 50.500 C 379.901 50.500,379.702 50.698,379.512 50.939 M33.714 52.417 C 33.716 52.875,33.748 53.043,33.786 52.789 C 33.825 52.536,33.824 52.161,33.784 51.956 C 33.744 51.751,33.713 51.958,33.714 52.417 M378.912 65.000 C 378.912 71.646,378.933 74.365,378.958 71.042 C 378.984 67.719,378.984 62.281,378.958 58.958 C 378.933 55.635,378.912 58.354,378.912 65.000 M204.711 53.620 C 204.964 53.658,205.339 53.657,205.544 53.617 C 205.749 53.578,205.542 53.546,205.083 53.548 C 204.625 53.549,204.457 53.581,204.711 53.620 M298.627 53.618 C 298.834 53.658,299.134 53.656,299.294 53.615 C 299.453 53.573,299.283 53.540,298.917 53.542 C 298.550 53.544,298.420 53.578,298.627 53.618 M361.875 53.619 C 362.127 53.658,362.540 53.658,362.792 53.619 C 363.044 53.581,362.837 53.550,362.333 53.550 C 361.829 53.550,361.623 53.581,361.875 53.619 M389.958 54.118 C 390.165 54.157,390.502 54.157,390.708 54.118 C 390.915 54.078,390.746 54.045,390.333 54.045 C 389.921 54.045,389.752 54.078,389.958 54.118 M258.833 55.250 C 259.331 55.754,259.776 56.167,259.822 56.167 C 259.868 56.167,259.498 55.754,259.000 55.250 C 258.502 54.746,258.057 54.333,258.011 54.333 C 257.966 54.333,258.335 54.746,258.833 55.250 M200.906 55.375 L 200.417 55.917 200.958 55.427 C 201.463 54.971,201.577 54.833,201.448 54.833 C 201.419 54.833,201.175 55.077,200.906 55.375 M180.500 55.052 C 180.500 55.081,180.744 55.325,181.042 55.594 L 181.583 56.083 181.094 55.542 C 180.638 55.037,180.500 54.923,180.500 55.052 M278.232 55.405 C 278.181 55.535,278.168 55.817,278.202 56.030 C 278.248 56.314,278.287 56.251,278.349 55.792 C 278.436 55.145,278.390 54.992,278.232 55.405 M209.000 55.385 C 209.000 55.414,209.244 55.658,209.542 55.927 L 210.083 56.417 209.594 55.875 C 209.138 55.370,209.000 55.257,209.000 55.385 M336.872 56.167 C 336.872 56.487,336.906 56.619,336.948 56.458 C 336.990 56.298,336.990 56.035,336.948 55.875 C 336.906 55.715,336.872 55.846,336.872 56.167 M337.077 65.167 C 337.077 69.521,337.099 71.302,337.125 69.125 C 337.151 66.948,337.151 63.385,337.125 61.208 C 337.099 59.031,337.077 60.813,337.077 65.167 M308.410 66.250 C 308.410 70.192,308.432 71.780,308.458 69.780 C 308.485 67.780,308.485 64.555,308.458 62.614 C 308.431 60.672,308.410 62.308,308.410 66.250 M367.883 60.000 C 367.883 60.504,367.915 60.710,367.953 60.458 C 367.991 60.206,367.991 59.794,367.953 59.542 C 367.915 59.290,367.883 59.496,367.883 60.000 M138.740 60.708 L 138.250 61.250 138.792 60.760 C 139.090 60.491,139.333 60.248,139.333 60.219 C 139.333 60.090,139.196 60.203,138.740 60.708 M170.209 61.917 C 170.211 62.283,170.245 62.414,170.285 62.206 C 170.324 61.999,170.323 61.699,170.281 61.540 C 170.239 61.380,170.207 61.550,170.209 61.917 M215.390 62.917 C 215.391 63.650,215.420 63.929,215.456 63.537 C 215.491 63.145,215.490 62.545,215.454 62.204 C 215.419 61.863,215.390 62.183,215.390 62.917 M165.723 63.000 C 165.723 63.688,165.752 63.969,165.788 63.625 C 165.824 63.281,165.824 62.719,165.788 62.375 C 165.752 62.031,165.723 62.313,165.723 63.000 M372.556 63.000 C 372.556 63.688,372.585 63.969,372.621 63.625 C 372.657 63.281,372.657 62.719,372.621 62.375 C 372.585 62.031,372.556 62.313,372.556 63.000 M194.064 65.417 C 194.064 66.517,194.091 66.945,194.124 66.368 C 194.156 65.792,194.156 64.892,194.123 64.368 C 194.090 63.845,194.063 64.317,194.064 65.417 M351.218 65.583 C 351.219 66.133,351.250 66.338,351.287 66.039 C 351.325 65.739,351.324 65.289,351.286 65.039 C 351.248 64.788,351.217 65.033,351.218 65.583 M300.417 65.083 C 300.817 65.220,302.344 65.276,302.139 65.146 C 302.017 65.069,301.542 65.010,301.083 65.016 C 300.625 65.022,300.325 65.052,300.417 65.083 M165.724 66.583 C 165.724 67.317,165.754 67.596,165.789 67.204 C 165.824 66.812,165.824 66.212,165.788 65.871 C 165.752 65.529,165.723 65.850,165.724 66.583 M122.745 75.667 C 122.745 81.121,122.766 83.352,122.792 80.625 C 122.817 77.898,122.817 73.435,122.792 70.708 C 122.766 67.981,122.745 70.212,122.745 75.667 M230.950 68.002 C 230.081 68.911,229.619 69.002,228.947 68.396 C 228.431 67.930,228.432 67.934,228.988 68.538 L 229.558 69.159 230.220 68.788 C 230.584 68.584,231.068 68.173,231.296 67.875 C 231.850 67.149,231.720 67.196,230.950 68.002 M303.725 69.333 C 303.725 70.112,303.754 70.431,303.789 70.042 C 303.824 69.652,303.824 69.015,303.789 68.625 C 303.754 68.235,303.725 68.554,303.725 69.333 M293.214 71.083 C 293.216 71.542,293.248 71.709,293.286 71.456 C 293.325 71.203,293.324 70.828,293.284 70.623 C 293.244 70.418,293.213 70.625,293.214 71.083 M265.050 72.000 C 265.050 72.504,265.081 72.710,265.119 72.458 C 265.158 72.206,265.158 71.794,265.119 71.542 C 265.081 71.290,265.050 71.496,265.050 72.000 M132.050 72.833 C 132.050 73.337,132.081 73.544,132.119 73.292 C 132.158 73.040,132.158 72.627,132.119 72.375 C 132.081 72.123,132.050 72.329,132.050 72.833 M273.542 72.917 C 273.544 73.283,273.578 73.414,273.618 73.206 C 273.658 72.999,273.656 72.699,273.615 72.540 C 273.573 72.380,273.540 72.550,273.542 72.917 M212.375 74.282 C 212.535 74.323,212.798 74.323,212.958 74.282 C 213.119 74.240,212.987 74.205,212.667 74.205 C 212.346 74.205,212.215 74.240,212.375 74.282 M132.218 75.250 C 132.219 75.800,132.250 76.005,132.287 75.705 C 132.325 75.406,132.324 74.956,132.286 74.705 C 132.248 74.455,132.217 74.700,132.218 75.250 M297.458 75.784 C 297.665 75.824,298.002 75.824,298.208 75.784 C 298.415 75.745,298.246 75.712,297.833 75.712 C 297.421 75.712,297.252 75.745,297.458 75.784 M206.375 76.282 C 206.535 76.323,206.798 76.323,206.958 76.282 C 207.119 76.240,206.987 76.205,206.667 76.205 C 206.346 76.205,206.215 76.240,206.375 76.282 M362.875 76.286 C 363.127 76.324,363.540 76.324,363.792 76.286 C 364.044 76.248,363.837 76.217,363.333 76.217 C 362.829 76.217,362.623 76.248,362.875 76.286 M383.542 77.417 C 383.544 77.783,383.578 77.914,383.618 77.706 C 383.658 77.499,383.656 77.199,383.615 77.040 C 383.573 76.880,383.540 77.050,383.542 77.417 M181.102 77.970 C 181.056 78.045,181.239 78.074,181.509 78.034 C 181.779 77.995,182.000 77.933,182.000 77.898 C 182.000 77.771,181.185 77.836,181.102 77.970 M338.750 78.500 C 339.108 78.867,339.438 79.167,339.484 79.167 C 339.530 79.167,339.275 78.867,338.917 78.500 C 338.559 78.133,338.228 77.833,338.182 77.833 C 338.137 77.833,338.392 78.133,338.750 78.500 M132.383 79.000 C 132.383 79.504,132.415 79.710,132.453 79.458 C 132.491 79.206,132.491 78.794,132.453 78.542 C 132.415 78.290,132.383 78.496,132.383 79.000 M175.208 79.948 C 175.369 79.990,175.631 79.990,175.792 79.948 C 175.952 79.906,175.821 79.872,175.500 79.872 C 175.179 79.872,175.048 79.906,175.208 79.948 M205.208 79.955 C 205.552 79.991,206.115 79.991,206.458 79.955 C 206.802 79.919,206.521 79.889,205.833 79.889 C 205.146 79.889,204.865 79.919,205.208 79.955 M254.460 79.951 C 254.668 79.991,254.968 79.990,255.127 79.948 C 255.286 79.906,255.117 79.874,254.750 79.875 C 254.383 79.877,254.253 79.911,254.460 79.951 M255.877 79.953 C 256.131 79.991,256.506 79.990,256.711 79.951 C 256.916 79.911,256.708 79.880,256.250 79.881 C 255.792 79.882,255.624 79.915,255.877 79.953 M279.375 79.948 C 279.535 79.990,279.798 79.990,279.958 79.948 C 280.119 79.906,279.987 79.872,279.667 79.872 C 279.346 79.872,279.215 79.906,279.375 79.948 M296.377 79.953 C 296.631 79.991,297.006 79.990,297.211 79.951 C 297.416 79.911,297.208 79.880,296.750 79.881 C 296.292 79.882,296.124 79.915,296.377 79.953 M342.625 79.951 C 342.831 79.991,343.169 79.991,343.375 79.951 C 343.581 79.911,343.412 79.879,343.000 79.879 C 342.587 79.879,342.419 79.911,342.625 79.951 M362.375 79.955 C 362.719 79.991,363.281 79.991,363.625 79.955 C 363.969 79.919,363.688 79.889,363.000 79.889 C 362.313 79.889,362.031 79.919,362.375 79.955 M132.548 81.250 C 132.549 81.708,132.581 81.876,132.620 81.623 C 132.658 81.369,132.657 80.994,132.617 80.789 C 132.578 80.584,132.546 80.792,132.548 81.250 M132.714 84.750 C 132.716 85.208,132.748 85.376,132.786 85.123 C 132.825 84.869,132.824 84.494,132.784 84.289 C 132.744 84.084,132.713 84.292,132.714 84.750 M132.883 87.667 C 132.883 88.171,132.915 88.377,132.953 88.125 C 132.991 87.873,132.991 87.460,132.953 87.208 C 132.915 86.956,132.883 87.162,132.883 87.667 M120.573 92.208 L 120.083 92.750 120.625 92.260 C 120.923 91.991,121.167 91.748,121.167 91.719 C 121.167 91.590,121.029 91.703,120.573 92.208 M113.458 94.287 C 113.756 94.324,114.244 94.324,114.542 94.287 C 114.840 94.250,114.596 94.220,114.000 94.220 C 113.404 94.220,113.160 94.250,113.458 94.287 M116.042 94.282 C 116.202 94.323,116.465 94.323,116.625 94.282 C 116.785 94.240,116.654 94.205,116.333 94.205 C 116.013 94.205,115.881 94.240,116.042 94.282 M110.712 98.167 C 110.712 98.579,110.745 98.748,110.784 98.542 C 110.824 98.335,110.824 97.998,110.784 97.792 C 110.745 97.585,110.712 97.754,110.712 98.167 M114.875 103.282 C 115.035 103.323,115.298 103.323,115.458 103.282 C 115.619 103.240,115.487 103.205,115.167 103.205 C 114.846 103.205,114.715 103.240,114.875 103.282 M123.458 104.121 C 123.756 104.158,124.244 104.158,124.542 104.121 C 124.840 104.084,124.596 104.053,124.000 104.053 C 123.404 104.053,123.160 104.084,123.458 104.121 " stroke="none" fill="#7b8ce2" fill-rule="evenodd"/></g></svg>