<?xml version="1.0" standalone="no"?>
<!DOCTYPE svg PUBLIC "-//W3C//DTD SVG 20010904//EN"
 "http://www.w3.org/TR/2001/REC-SVG-20010904/DTD/svg10.dtd">
<svg version="1.0" xmlns="http://www.w3.org/2000/svg"
 width="700.000000pt" height="700.000000pt" viewBox="0 0 700.000000 700.000000"
 preserveAspectRatio="xMidYMid meet">
<metadata>
Created by potrace 1.11, written by Peter Selinger 2001-2013
</metadata>
<g transform="translate(0.000000,700.000000) scale(0.100000,-0.100000)"
fill="#000000" stroke="none">
<path d="M3280 6994 c-19 -2 -84 -9 -145 -14 -408 -39 -800 -153 -1190 -345
-686 -339 -1241 -894 -1580 -1580 -191 -388 -295 -743 -347 -1190 -19 -167
-16 -588 6 -760 87 -686 330 -1260 760 -1800 105 -132 383 -408 521 -519 678
-541 1516 -812 2367 -766 713 39 1364 276 1923 700 1065 807 1574 2122 1329
3436 -102 552 -349 1086 -710 1539 -111 138 -387 416 -519 521 -530 422 -1098
666 -1760 755 -142 19 -563 34 -655 23z m30 -2379 l0 -1685 -866 0 c-553 0
-864 3 -862 10 5 15 1723 3359 1726 3360 1 0 2 -758 2 -1685z m2090 -530 c0
-3 -862 -1683 -1698 -3310 l-31 -60 -1 1688 0 1687 865 0 c476 0 865 -2 865
-5z"/>
</g>
</svg>
