<?xml version="1.0" encoding="UTF-8"?>
<svg width="265px" height="204px" viewBox="0 0 265 204" version="1.1" xmlns="http://www.w3.org/2000/svg" xmlns:xlink="http://www.w3.org/1999/xlink">
    <!-- Generator: Sketch 52.6 (67491) - http://www.bohemiancoding.com/sketch -->
    <title>path37</title>
    <desc>Created with Sketch.</desc>
    <defs>
        <path d="M292.46129,235.09167 C314.7961,228.48687 324.22313,211.12233 327.649,202.39301 C330.42027,195.0709 331.655,187.02755 331.655,177.80826 C331.655,157.86059 325.57545,143.47506 311.70341,129.0229 C297.82745,114.56682 278.72253,109.25946 258.79053,109.25946 L171.1368,109.25946 L171.125,233.45713 C171.125,239.77579 168.7653,245.06747 164.05374,249.33609 C159.33827,253.61255 153.94076,255.7449 147.84945,255.7449 C141.38576,255.7449 135.78834,253.56551 131.0807,249.18714 C126.36523,244.81268 124.01337,239.55236 124.01337,233.40618 L124.01337,108.53822 L76.403985,108.53822 L76.403985,230.24293 C76.403985,250.17492 83.628107,267.08085 98.080271,280.95681 C112.53244,294.83669 127.05516,301.76683 147.00283,301.76683 C167.13865,301.76683 184.57375,294.79358 199.30422,280.85098 C214.03861,266.90447 218.72664,250.06909 218.72664,230.34876 L218.72664,154.81494 L261.94986,154.81494 C268.09213,154.81494 273.35245,157.16679 277.73083,161.88227 C282.10136,166.59382 284.28859,172.1834 284.28859,178.65101 C284.28859,184.7384 282.15232,190.13984 277.87978,194.85531 C273.67387,199.50023 268.46059,201.84425 262.2556,201.9148 L228.64756,201.9148 L270.13041,301.51205 L320.62479,301.51205 L292.46129,235.09167" id="path-1"></path>
        <filter x="-2.0%" y="-1.0%" width="103.9%" height="105.2%" filterUnits="objectBoundingBox" id="filter-2">
            <feGaussianBlur stdDeviation="0" in="SourceGraphic"></feGaussianBlur>
        </filter>
        <filter x="-3.5%" y="-3.1%" width="107.1%" height="109.3%" filterUnits="objectBoundingBox" id="filter-3">
            <feOffset dx="0" dy="3" in="SourceAlpha" result="shadowOffsetOuter1"></feOffset>
            <feGaussianBlur stdDeviation="2.5" in="shadowOffsetOuter1" result="shadowBlurOuter1"></feGaussianBlur>
            <feColorMatrix values="0 0 0 0 0   0 0 0 0 0   0 0 0 0 0  0 0 0 0.5 0" type="matrix" in="shadowBlurOuter1"></feColorMatrix>
        </filter>
        <filter x="-2.7%" y="-2.1%" width="105.5%" height="107.2%" filterUnits="objectBoundingBox" id="filter-4">
            <feGaussianBlur stdDeviation="1.5" in="SourceAlpha" result="shadowBlurInner1"></feGaussianBlur>
            <feOffset dx="0" dy="1" in="shadowBlurInner1" result="shadowOffsetInner1"></feOffset>
            <feComposite in="shadowOffsetInner1" in2="SourceAlpha" operator="arithmetic" k2="-1" k3="1" result="shadowInnerInner1"></feComposite>
            <feColorMatrix values="0 0 0 0 0   0 0 0 0 0   0 0 0 0 0  0 0 0 0.5 0" type="matrix" in="shadowInnerInner1"></feColorMatrix>
        </filter>
    </defs>
    <g id="Page-1" stroke="none" stroke-width="1" fill="none" fill-rule="evenodd">
        <g id="UR_logo" transform="translate(-72.000000, -106.000000)">
            <g id="path37" filter="url(#filter-2)">
                <use fill="black" fill-opacity="1" filter="url(#filter-3)" xlink:href="#path-1"></use>
                <use fill="#000000" fill-rule="evenodd" xlink:href="#path-1"></use>
                <use fill="black" fill-opacity="1" filter="url(#filter-4)" xlink:href="#path-1"></use>
            </g>
        </g>
    </g>
</svg>